<?xml version="1.0" encoding="UTF-8"?><svg id="a" xmlns="http://www.w3.org/2000/svg" xmlns:xlink="http://www.w3.org/1999/xlink" viewBox="0 0 504.7 477.3"><defs><style>.gu{fill:url(#by);}.gu,.gv,.gw,.gx,.gy{opacity:.6;}.h`{fill:url(#gl);}.ha{fill:url(#gf);}.hb{fill:url(#be);}.hc{fill:url(#t);}.hd{fill:url(#bu);}.he{filter:url(#am);}.hf{fill:url(#et);}.hg{fill:url(#bq);}.hh{fill:#d7dbdd;}.hi{fill:url(#fb);}.hj,.hk,.hl{fill:#fff;}.hm{fill:url(#eq);}.hn{fill:url(#eh);}.ho{fill:url(#ds);}.hp{fill:url(#ca);}.hq{fill:url(#ap);}.hr{fill:url(#gb);}.hs{fill:url(#dp);}.ht{fill:url(#r);}.hu{fill:url(#bk);}.hv{fill:url(#fg);}.hw{fill:url(#ch);}.hx{fill:url(#bw);opacity:.5;}.gv{fill:url(#c`);}.gw{fill:url(#ck);}.hy{fill:url(#fn);}.i`{fill:url(#y);}.ia{fill:url(#dh);}.ib{fill:url(#l);}.ic{fill:url(#dr);}.id{fill:url(#ew);}.hk,.ie{fill-rule:evenodd;}.if{fill:url(#ef);}.ig{fill:url(#fq);}.ih{fill:url(#gt);}.ii{fill:url(#bl);}.ij{fill:url(#cm);}.ik{fill:url(#bp);}.il{fill:url(#af);}.im{fill:url(#c);}.in{fill:url(#br);}.io{fill:url(#aq);}.ip{fill:url(#u);}.iq{fill:url(#gi);}.ir{fill:url(#ge);}.is{isolation:isolate;}.it{fill:url(#b`);}.iu{fill:url(#v);}.iv{fill:url(#fj);}.iw{fill:url(#av);}.ix{fill:url(#a`);}.iy{fill:url(#f`);}.hl{opacity:0;}.j`{fill:url(#as);}.ja{fill:url(#dt);}.jb{fill:url(#m);}.jc{fill:url(#gn);}.jd{fill:url(#gj);}.je{fill:url(#ao);}.je,.jf{opacity:.3;}.jg{fill:url(#fc);}.jh{fill:url(#bh);}.ji{fill:url(#ei);}.jj{fill:url(#aw);}.jk{fill:url(#do);}.jl{mask:url(#ak);}.gx{fill:#020202;}.jm{fill:url(#du);}.jn{fill:url(#dg);}.jo{fill:url(#bm);}.jp{fill:url(#fk);}.jq{fill:url(#fr);}.jr{fill:url(#ba);}.js{fill:url(#dd);opacity:.2;}.jt{fill:url(#eb);}.ju{fill:url(#ek);}.jv{fill:url(#ec);}.jw{filter:url(#cy);}.jx{fill:url(#gc);}.jy{fill:url(#bj);}.k`{fill:url(#bd);}.ka{filter:url(#aj);}.kb{fill:url(#eg);}.kc{fill:url(#ce);}.kd{fill:url(#f);}.ke{fill:url(#bg);}.kf{fill:url(#ae);}.kg{fill:url(#bi);}.kh{fill:url(#ex);}.ki{fill:url(#bo);}.kj{fill:url(#dq);}.kk{fill:url(#gh);}.kl{mask:url(#cw);}.km{fill:url(#p);}.kn{fill:url(#dj);}.ko{fill:url(#fs);}.kp{fill:url(#g);}.kq{fill:url(#bb);}.kr{fill:url(#gm);}.ks{fill:url(#ad);}.kt{fill:url(#ab);}.ku{fill:url(#cb);}.kv{fill:url(#fm);}.kw{fill:url(#cg);}.kx{fill:url(#au);}.ky{fill:url(#bf);}.l`{fill:url(#go);}.la{fill:#fdfdfd;}.lb{fill:url(#fv);}.lc{fill:url(#cf);}.ld{fill:url(#i);}.le{fill:url(#ep);}.lf{fill:url(#fu);}.lg{fill:url(#dv);}.lh{fill:url(#el);}.li{fill:url(#gk);}.lj{fill:url(#di);}.lk{fill:url(#dx);}.ll{fill:url(#dy);}.lm{fill:url(#bc);}.ln{fill:url(#gd);}.lo{fill:url(#ci);}.lp{fill:url(#ar);}.lq{fill:url(#bv);}.lr{fill:url(#h);}.gy{fill:url(#cj);}.ls{fill:url(#cn);}.lt{fill:url(#er);}.lu{fill:url(#gg);}.lv{fill:url(#fa);}.lw{fill:url(#em);}.lx{fill:url(#gs);}.ly{fill:url(#d);}.jf{fill:url(#b);}.m`{fill:url(#e);}.ma{fill:url(#dc);}.ma,.mb{mix-blend-mode:multiply;}.mc{fill:url(#dm);}.md{fill:url(#fh);}.ie{fill:#ecf5ff;}.me{fill:none;opacity:.6;stroke:#000;stroke-miterlimit:10;}.mf{fill:url(#co);}.mg{fill:url(#x);}.mh{mask:url(#ah);}.mi{fill:url(#fx);}.mj{fill:url(#at);}.mk{fill:url(#aa);}.ml{fill:url(#s);}.mm{fill:#d1c9d1;}.mn{fill:url(#bx);}.mo{fill:#272121;}.mp{fill:url(#ee);}.mq{fill:url(#fl);}.mr{fill:url(#bn);}.ms{fill:url(#dl);opacity:.4;}.mt{fill:url(#n);}.mu{fill:url(#df);}.mv{fill:url(#ac);}.mw{fill:url(#gq);}.mx{fill:url(#cs);}.my{fill:url(#fi);}.n`{fill:url(#ey);}.na{fill:url(#ev);}.nb{fill:url(#fw);}.nc{fill:url(#fo);}.nd{fill:url(#cc);}.ne{fill:url(#ej);}.nf{fill:url(#w);}.ng{fill:url(#gr);}.nh{fill:url(#dn);}.ni{fill:url(#en);}.nj{fill:url(#es);}.nk{fill:#0c1556;}.nl{fill:url(#cp);}.nm{fill:url(#j);}.nn{fill:url(#cl);}.no{fill:url(#ed);}.np{fill:url(#o);}.nq{fill:url(#dw);}.nr{fill:url(#fd);}.ns{fill:url(#bt);}.nt{fill:url(#cv);}.nu{fill:url(#ax);}.nv{fill:url(#q);}.nw{fill:url(#g`);}.nx{fill:url(#ag);}.ny{fill:url(#cr);}.o`{filter:url(#db);}.oa{fill:url(#ay);}.ob{fill:url(#de);}.oc{mask:url(#d`);}.od{fill:url(#k);}.oe{fill:url(#ga);}.of{fill:url(#cu);}.og{fill:url(#bs);}.oh{fill:url(#cd);}.oi{fill:url(#ft);}.oj{fill:url(#eo);}.ok{fill:url(#ff);}.ol{fill:url(#eu);}.om{fill:url(#fp);}.on{fill:url(#ea);}.oo{fill:url(#cq);}.op{fill:url(#fe);}.oq{fill:url(#fy);}.or{fill:url(#dk);}.os{fill:url(#e`);}.ot{fill:url(#gp);}.ou{fill:url(#ct);}.mb{fill:url(#an);}</style><linearGradient id="b" x1="99.6" y1="223.4" x2="349.9" y2="223.4" gradientTransform="matrix(1, 0, 0, 1, 0, 0)" gradientUnits="userSpaceOnUse"><stop offset="0" stop-color="#303030"/><stop offset="1" stop-color="#231a1a"/></linearGradient><linearGradient id="c" x1="311.1" y1="163.5" x2="310" y2="181.2" gradientTransform="matrix(1, 0, 0, 1, 0, 0)" gradientUnits="userSpaceOnUse"><stop offset="0" stop-color="#303030"/><stop offset="1" stop-color="#3c3c3c"/></linearGradient><linearGradient id="d" x1="194.7" y1="230.6" x2="193.4" y2="250.5" xlink:href="#c"/><linearGradient id="e" x1="166.2" y1="253.7" x2="197.9" y2="253.7" gradientTransform="matrix(1, 0, 0, 1, 0, 0)" gradientUnits="userSpaceOnUse"><stop offset="0" stop-color="#303030"/><stop offset="1" stop-color="#727272"/></linearGradient><linearGradient id="f" x1="174.3" y1="256.5" x2="201.9" y2="256.5" gradientTransform="matrix(1, 0, 0, 1, 0, 0)" gradientUnits="userSpaceOnUse"><stop offset="0" stop-color="#303030"/><stop offset="1" stop-color="#4c4a4b"/></linearGradient><linearGradient id="g" x1="180.4" y1="256.5" x2="197.6" y2="256.5" xlink:href="#c"/><linearGradient id="h" x1="187.6" y1="242.7" x2="186.1" y2="265.7" gradientTransform="matrix(1, 0, 0, 1, 0, 0)" gradientUnits="userSpaceOnUse"><stop offset="0" stop-color="#3f3f3f"/><stop offset="1" stop-color="#727272"/></linearGradient><linearGradient id="i" x1="183.5" y1="255.3" x2="191.6" y2="255.3" xlink:href="#b"/><linearGradient id="j" x1="185.5" y1="256" x2="192.7" y2="256" xlink:href="#h"/><linearGradient id="k" x1="281.1" y1="187.6" x2="312.8" y2="187.6" xlink:href="#e"/><linearGradient id="l" x1="289.2" y1="190.5" x2="316.9" y2="190.5" xlink:href="#f"/><linearGradient id="m" x1="295.4" y1="190.5" x2="312.6" y2="190.5" xlink:href="#c"/><linearGradient id="n" x1="302.6" y1="176.6" x2="301.1" y2="199.6" xlink:href="#h"/><linearGradient id="o" x1="298.4" y1="189.2" x2="306.6" y2="189.2" xlink:href="#b"/><linearGradient id="p" x1="300.5" y1="189.9" x2="307.6" y2="189.9" xlink:href="#h"/><linearGradient id="q" x1="138.9" y1="248.9" x2="130.8" y2="195.8" gradientTransform="matrix(1, 0, 0, 1, 0, 0)" gradientUnits="userSpaceOnUse"><stop offset="0" stop-color="#fcfcfc"/><stop offset="1" stop-color="#dcdcdc"/></linearGradient><linearGradient id="r" x1="228" y1="182.2" x2="216.2" y2="104.8" xlink:href="#q"/><linearGradient id="s" x1="216.7" y1="172.3" x2="244.2" y2="224.2" xlink:href="#q"/><linearGradient id="t" x1="156.5" y1="223.8" x2="147.5" y2="165" xlink:href="#e"/><linearGradient id="u" x1="230.5" y1="198.2" x2="244.9" y2="225.4" xlink:href="#q"/><linearGradient id="v" x1="130" y1="275" x2="121.7" y2="220.7" gradientTransform="matrix(1, 0, 0, 1, 0, 0)" gradientUnits="userSpaceOnUse"><stop offset="0" stop-color="#454545"/><stop offset="1" stop-color="#727272"/></linearGradient><linearGradient id="w" x1="144.7" y1="260.3" x2="143.6" y2="253.4" gradientTransform="matrix(1, 0, 0, 1, 0, 0)" gradientUnits="userSpaceOnUse"><stop offset="0" stop-color="#f9bf1e"/><stop offset="1" stop-color="#f79c45"/></linearGradient><linearGradient id="x" x1="107" y1="240.8" x2="105.9" y2="233.9" xlink:href="#w"/><linearGradient id="y" x1="127" y1="256" x2="123.4" y2="232.8" xlink:href="#v"/><linearGradient id="a`" x1="112.7" y1="333.2" x2="137.8" y2="333.2" gradientTransform="translate(0 -93.1) rotate(.9) skewX(.9)" gradientUnits="userSpaceOnUse"><stop offset="0" stop-color="#303030"/><stop offset="1" stop-color="#282728"/></linearGradient><linearGradient id="aa" y1="335.8" y2="335.8" xlink:href="#a`"/><linearGradient id="ab" y1="338.5" y2="338.5" xlink:href="#a`"/><linearGradient id="ac" x1="131.2" y1="282.6" x2="124.2" y2="236.5" xlink:href="#v"/><linearGradient id="ad" x1="130.4" y1="272.5" x2="124.4" y2="233.1" gradientTransform="matrix(1, 0, 0, 1, 0, 0)" gradientUnits="userSpaceOnUse"><stop offset="0" stop-color="#dedede"/><stop offset="1" stop-color="#727272"/></linearGradient><linearGradient id="ae" x1="184.2" y1="193.1" x2="194.2" y2="212" xlink:href="#e"/><linearGradient id="af" x1="270.9" y1="176" x2="255.7" y2="154.2" xlink:href="#q"/><linearGradient id="ag" x1="244" y1="223.9" x2="247.2" y2="230" xlink:href="#c"/><filter id="aj" x="159.4" y="237.6" width="330.7" height="194.2" color-interpolation-filters="sRGB" filterUnits="userSpaceOnUse"><feFlood flood-color="#fff" result="bg"/><feBlend in="SourceGraphic" in2="bg"/></filter><filter id="am" x="159.4" y="-8507.7" width="330.7" height="32766" color-interpolation-filters="sRGB" filterUnits="userSpaceOnUse"><feFlood flood-color="#fff" result="bg"/><feBlend in="SourceGraphic" in2="bg"/></filter><mask id="ak" x="159.4" y="-8507.7" width="330.7" height="32766" maskUnits="userSpaceOnUse"><g class="he"/></mask><linearGradient id="an" x1="285.2" y1="300.2" x2="362.4" y2="373.2" gradientTransform="matrix(1, 0, 0, 1, 0, 0)" gradientUnits="userSpaceOnUse"><stop offset="0" stop-color="#fff"/><stop offset="1" stop-color="#333"/></linearGradient><mask id="ah" x="159.4" y="237.6" width="330.7" height="194.2" maskUnits="userSpaceOnUse"><g class="ka"><g class="jl"><path class="mb" d="M262.9,429.7l-99.7-59.3c-5.1-3-5-10.4,.1-13.3l208.2-119.5,118.7,70.6-211.8,121.6c-4.8,2.8-10.7,2.7-15.5-.1Z"/></g></g></mask><linearGradient id="ao" x1="285.2" y1="300.2" x2="362.4" y2="373.2" xlink:href="#b"/><linearGradient id="ap" x1="435.9" y1="258" x2="341.7" y2="353.7" xlink:href="#b"/><linearGradient id="aq" x1="309.9" y1="357" x2="326.2" y2="357" xlink:href="#b"/><linearGradient id="ar" x1="309.9" y1="334.2" x2="365.7" y2="334.2" gradientTransform="matrix(1, 0, 0, 1, 0, 0)" gradientUnits="userSpaceOnUse"><stop offset="0" stop-color="#b0b0b0"/><stop offset="1" stop-color="#f6f6f6"/></linearGradient><linearGradient id="as" x1="361.6" y1="330.5" x2="332.8" y2="367.3" xlink:href="#e"/><linearGradient id="at" x1="445.6" y1="268" x2="446.7" y2="268" gradientTransform="matrix(1, 0, 0, 1, 0, 0)" gradientUnits="userSpaceOnUse"><stop offset="0" stop-color="#636363"/><stop offset="1" stop-color="#727272"/></linearGradient><linearGradient id="au" x1="450.8" y1="280.4" x2="462.9" y2="280.4" xlink:href="#at"/><linearGradient id="av" x1="418.7" y1="293.4" x2="450.2" y2="293.4" xlink:href="#e"/><linearGradient id="aw" x1="426.7" y1="296.2" x2="454.2" y2="296.2" xlink:href="#b"/><linearGradient id="ax" x1="432.8" y1="296.2" x2="449.9" y2="296.2" xlink:href="#c"/><linearGradient id="ay" x1="440" y1="282.5" x2="438.5" y2="305.3" xlink:href="#e"/><linearGradient id="b`" x1="435.3" y1="295" x2="442.9" y2="295" xlink:href="#e"/><linearGradient id="ba" x1="437.2" y1="295.7" x2="443.9" y2="295.7" xlink:href="#b"/><linearGradient id="bb" x1="390.4" y1="313.4" x2="421.9" y2="313.4" xlink:href="#e"/><linearGradient id="bc" x1="398.5" y1="316.2" x2="425.9" y2="316.2" xlink:href="#b"/><linearGradient id="bd" x1="404.6" y1="316.2" x2="421.7" y2="316.2" xlink:href="#c"/><linearGradient id="be" x1="411.7" y1="302.4" x2="410.3" y2="325.3" xlink:href="#e"/><linearGradient id="bf" x1="407" y1="315" x2="414.7" y2="315" xlink:href="#e"/><linearGradient id="bg" x1="408.9" y1="315.7" x2="415.6" y2="315.7" xlink:href="#b"/><linearGradient id="bh" x1="379.4" y1="301.7" x2="456.7" y2="301.7" xlink:href="#at"/><linearGradient id="bi" x1="389.3" y1="305" x2="464" y2="305" gradientTransform="matrix(1, 0, 0, 1, 0, 0)" gradientUnits="userSpaceOnUse"><stop offset="0" stop-color="#b0b0b0"/><stop offset="1" stop-color="#dcdcdc"/></linearGradient><linearGradient id="bj" x1="246.9" y1="283.5" x2="314.9" y2="283.5" xlink:href="#at"/><linearGradient id="bk" x1="246.9" y1="188.3" x2="478.7" y2="188.3" gradientTransform="matrix(1, 0, 0, 1, 0, 0)" gradientUnits="userSpaceOnUse"><stop offset="0" stop-color="#f9f9f9"/><stop offset="1" stop-color="#f6f6f6"/></linearGradient><linearGradient id="bl" x1="314.8" y1="256.4" x2="478.9" y2="256.4" xlink:href="#bi"/><linearGradient id="bm" x1="281.7" y1="300.3" x2="285.4" y2="385.6" gradientTransform="matrix(1, 0, 0, 1, 0, 0)" gradientUnits="userSpaceOnUse"><stop offset="0" stop-color="#fe7f0a"/><stop offset="1" stop-color="#f97126"/></linearGradient><linearGradient id="bn" x1="224" y1="355.3" x2="210.7" y2="268" gradientTransform="matrix(1, 0, 0, 1, 0, 0)" gradientUnits="userSpaceOnUse"><stop offset="0" stop-color="#dd2f2f"/><stop offset="1" stop-color="#ff6757"/></linearGradient><linearGradient id="bo" x1="200.3" y1="287.4" x2="309.9" y2="287.4" gradientTransform="matrix(1, 0, 0, 1, 0, 0)" gradientUnits="userSpaceOnUse"><stop offset="0" stop-color="#f4c567"/><stop offset="1" stop-color="#ffb538"/></linearGradient><linearGradient id="bp" x1="275.4" y1="307.2" x2="199.4" y2="338.7" gradientTransform="matrix(1, 0, 0, 1, 0, 0)" gradientUnits="userSpaceOnUse"><stop offset="0" stop-color="#fe7f0a"/><stop offset="1" stop-color="#ffb538"/></linearGradient><linearGradient id="bq" x1="194.2" y1="326.4" x2="256.4" y2="326.4" gradientTransform="matrix(1, 0, 0, 1, 0, 0)" gradientUnits="userSpaceOnUse"><stop offset="0" stop-color="#303030"/><stop offset="1" stop-color="#3a3a3a"/></linearGradient><linearGradient id="br" x1="227" y1="315.7" x2="239.2" y2="349.5" xlink:href="#e"/><linearGradient id="bs" x1="252" y1="368.4" x2="173.5" y2="372.3" xlink:href="#bp"/><linearGradient id="bt" x1="251.5" y1="366.4" x2="174.4" y2="370.3" xlink:href="#e"/><linearGradient id="bu" x1="251.5" y1="380.4" x2="174.4" y2="384.3" xlink:href="#e"/><linearGradient id="bv" x1="247.9" y1="382.4" x2="170.9" y2="386.3" xlink:href="#e"/><linearGradient id="bw" x1="224.4" y1="323.8" x2="195.5" y2="300.2" xlink:href="#e"/><linearGradient id="bx" x1="197.3" y1="345.7" x2="257.7" y2="345.7" xlink:href="#b"/><linearGradient id="by" x1="220.1" y1="319.9" x2="263.9" y2="319.9" xlink:href="#b"/><linearGradient id="c`" x1="199.4" y1="303.9" x2="217.6" y2="303.9" xlink:href="#b"/><linearGradient id="ca" x1="301.9" y1="346.5" x2="289.8" y2="307.5" xlink:href="#bq"/><linearGradient id="cb" x1="275.5" y1="354.6" x2="263.5" y2="315.6" xlink:href="#bq"/><linearGradient id="cc" x1="302.2" y1="349.7" x2="287.9" y2="303.6" xlink:href="#e"/><linearGradient id="cd" x1="277.6" y1="362.6" x2="263.9" y2="318.4" xlink:href="#e"/><linearGradient id="ce" x1="242" y1="381.2" x2="257.7" y2="381.2" xlink:href="#b"/><linearGradient id="cf" x1="243.2" y1="381.2" x2="256.5" y2="381.2" xlink:href="#bm"/><linearGradient id="cg" x1="191.5" y1="354.3" x2="207.2" y2="354.3" xlink:href="#b"/><linearGradient id="ch" x1="192.7" y1="354.3" x2="206.1" y2="354.3" xlink:href="#bm"/><linearGradient id="ci" x1="234.5" y1="367.3" x2="206.2" y2="368.7" xlink:href="#b"/><linearGradient id="cj" x1="279.9" y1="332.4" x2="260.2" y2="333.4" xlink:href="#b"/><linearGradient id="ck" x1="303.7" y1="333.3" x2="278" y2="334.6" xlink:href="#b"/><linearGradient id="cl" x1="183.4" y1="368.5" x2="272.5" y2="388.5" xlink:href="#e"/><linearGradient id="cm" x1="253.2" y1="399.7" x2="259.5" y2="401.1" xlink:href="#e"/><linearGradient id="cn" x1="270.7" y1="288" x2="304.3" y2="288" xlink:href="#bm"/><linearGradient id="co" x1="275.9" y1="251.8" x2="240.8" y2="287.4" gradientTransform="matrix(1, 0, 0, 1, 0, 0)" gradientUnits="userSpaceOnUse"><stop offset="0" stop-color="#f4c567"/><stop offset="1" stop-color="#f79c45"/></linearGradient><linearGradient id="cp" x1="282.7" y1="374" x2="314.2" y2="374" xlink:href="#e"/><linearGradient id="cq" x1="290.8" y1="376.8" x2="318.2" y2="376.8" xlink:href="#b"/><linearGradient id="cr" x1="296.9" y1="376.8" x2="314" y2="376.8" xlink:href="#c"/><linearGradient id="cs" x1="304" y1="363.1" x2="302.6" y2="385.9" xlink:href="#e"/><linearGradient id="ct" x1="299.3" y1="375.6" x2="307" y2="375.6" xlink:href="#e"/><linearGradient id="cu" x1="301.3" y1="376.3" x2="307.9" y2="376.3" xlink:href="#b"/><linearGradient id="cv" x1="279.6" y1="372" x2="317.6" y2="372" xlink:href="#bp"/><filter id="cy" x="389.1" y="386.9" width="115.6" height="35.7" color-interpolation-filters="sRGB" filterUnits="userSpaceOnUse"><feFlood flood-color="#fff" result="bg"/><feBlend in="SourceGraphic" in2="bg"/></filter><filter id="db" x="389.1" y="-8507.7" width="115.6" height="32766" color-interpolation-filters="sRGB" filterUnits="userSpaceOnUse"><feFlood flood-color="#fff" result="bg"/><feBlend in="SourceGraphic" in2="bg"/></filter><mask id="d`" x="389.1" y="-8507.7" width="115.6" height="32766" maskUnits="userSpaceOnUse"><g class="o`"/></mask><linearGradient id="dc" x1="389.1" y1="404.7" x2="504.7" y2="404.7" gradientTransform="matrix(1, 0, 0, 1, 0, 0)" gradientUnits="userSpaceOnUse"><stop offset="0" stop-color="#fff"/><stop offset="1" stop-color="#000"/></linearGradient><mask id="cw" x="389.1" y="386.9" width="115.6" height="35.7" maskUnits="userSpaceOnUse"><g class="jw"><g class="oc"><ellipse class="ma" cx="446.9" cy="404.7" rx="57.8" ry="17.8"/></g></g></mask><linearGradient id="dd" x1="389.1" y1="404.7" x2="504.7" y2="404.7" gradientTransform="matrix(1, 0, 0, 1, 0, 0)" gradientUnits="userSpaceOnUse"><stop offset="0" stop-color="#303030"/><stop offset="1" stop-color="#303030"/></linearGradient><linearGradient id="de" x1="-5778.8" y1="197.6" x2="-5794.9" y2="237" gradientTransform="translate(6160.2)" gradientUnits="userSpaceOnUse"><stop offset="0" stop-color="#303030"/><stop offset=".5" stop-color="#676767"/><stop offset=".8" stop-color="#fff"/><stop offset="1" stop-color="#727272"/></linearGradient><linearGradient id="df" x1="-5727.7" y1="257.5" x2="-5791.2" y2="266.2" gradientTransform="translate(6160.2)" xlink:href="#e"/><linearGradient id="dg" x1="-5727.3" y1="257.3" x2="-5791.1" y2="266.1" gradientTransform="translate(6160.2)" gradientUnits="userSpaceOnUse"><stop offset="0" stop-color="#c8c8c8"/><stop offset="1" stop-color="#f0f0f0"/></linearGradient><linearGradient id="dh" x1="-5797.8" y1="215.3" x2="-5775.5" y2="231.8" gradientTransform="translate(6160.2)" xlink:href="#e"/><linearGradient id="di" x1="-5786.4" y1="195.6" x2="-5786.4" y2="233.2" gradientTransform="translate(6160.2)" gradientUnits="userSpaceOnUse"><stop offset="0" stop-color="#3abaf9"/><stop offset="1" stop-color="#267ebd"/></linearGradient><linearGradient id="dj" x1="-5779.7" y1="249.2" x2="-5751.4" y2="270" xlink:href="#dg"/><linearGradient id="dk" x1="-5780.1" y1="248.8" x2="-5761.4" y2="262.6" gradientTransform="translate(6160.2)" xlink:href="#e"/><linearGradient id="dl" x1="-5756.2" y1="264.7" x2="-5750.4" y2="269" gradientTransform="translate(6160.2)" xlink:href="#e"/><linearGradient id="dm" x1="-5798.3" y1="262.2" x2="-5796.9" y2="263.2" xlink:href="#dg"/><linearGradient id="dn" x1="-5795.2" y1="260.3" x2="-5793.8" y2="261.4" xlink:href="#dg"/><linearGradient id="do" x1="-5792" y1="258.5" x2="-5790.6" y2="259.5" xlink:href="#dg"/><linearGradient id="dp" x1="-5788.8" y1="256.7" x2="-5787.4" y2="257.7" xlink:href="#dg"/><linearGradient id="dq" x1="-5785.6" y1="254.8" x2="-5784.3" y2="255.8" xlink:href="#dg"/><linearGradient id="dr" x1="-5782.5" y1="253" x2="-5781.1" y2="254" xlink:href="#dg"/><linearGradient id="ds" x1="-5779.3" y1="251.1" x2="-5777.9" y2="252.2" xlink:href="#dg"/><linearGradient id="dt" x1="-5776.1" y1="249.3" x2="-5774.7" y2="250.3" xlink:href="#dg"/><linearGradient id="du" x1="-5773" y1="247.5" x2="-5771.6" y2="248.5" xlink:href="#dg"/><linearGradient id="dv" x1="-5769.8" y1="245.6" x2="-5768.4" y2="246.7" xlink:href="#dg"/><linearGradient id="dw" x1="-5766.6" y1="243.8" x2="-5765.2" y2="244.8" xlink:href="#dg"/><linearGradient id="dx" x1="-5763.5" y1="241.9" x2="-5762.1" y2="243" xlink:href="#dg"/><linearGradient id="dy" x1="-5760.3" y1="240.1" x2="-5758.9" y2="241.1" xlink:href="#dg"/><linearGradient id="e`" x1="-5795.2" y1="264" x2="-5793.8" y2="265" xlink:href="#dg"/><linearGradient id="ea" x1="-5792" y1="262.2" x2="-5790.6" y2="263.2" xlink:href="#dg"/><linearGradient id="eb" x1="-5788.8" y1="260.3" x2="-5787.4" y2="261.4" xlink:href="#dg"/><linearGradient id="ec" x1="-5785.6" y1="258.5" x2="-5784.3" y2="259.5" xlink:href="#dg"/><linearGradient id="ed" x1="-5782.5" y1="256.7" x2="-5781.1" y2="257.7" xlink:href="#dg"/><linearGradient id="ee" x1="-5779.3" y1="254.8" x2="-5777.9" y2="255.8" xlink:href="#dg"/><linearGradient id="ef" x1="-5776.1" y1="253" x2="-5774.7" y2="254" xlink:href="#dg"/><linearGradient id="eg" x1="-5773" y1="251.1" x2="-5771.6" y2="252.2" xlink:href="#dg"/><linearGradient id="eh" x1="-5769.8" y1="249.3" x2="-5768.4" y2="250.3" xlink:href="#dg"/><linearGradient id="ei" x1="-5766.6" y1="247.5" x2="-5765.2" y2="248.5" xlink:href="#dg"/><linearGradient id="ej" x1="-5763.4" y1="245.6" x2="-5762.1" y2="246.7" xlink:href="#dg"/><linearGradient id="ek" x1="-5760.3" y1="243.8" x2="-5758.9" y2="244.8" xlink:href="#dg"/><linearGradient id="el" x1="-5757.1" y1="241.9" x2="-5755.7" y2="243" xlink:href="#dg"/><linearGradient id="em" x1="-5792" y1="265.9" x2="-5790.6" y2="266.9" xlink:href="#dg"/><linearGradient id="en" x1="-5788.8" y1="264" x2="-5787.4" y2="265" xlink:href="#dg"/><linearGradient id="eo" x1="-5785.6" y1="262.2" x2="-5784.3" y2="263.2" xlink:href="#dg"/><linearGradient id="ep" x1="-5782.5" y1="260.3" x2="-5781.1" y2="261.4" xlink:href="#dg"/><linearGradient id="eq" x1="-5779.3" y1="258.5" x2="-5777.9" y2="259.5" xlink:href="#dg"/><linearGradient id="er" x1="-5776.1" y1="256.7" x2="-5774.7" y2="257.7" xlink:href="#dg"/><linearGradient id="es" x1="-5773" y1="254.8" x2="-5771.6" y2="255.8" xlink:href="#dg"/><linearGradient id="et" x1="-5769.8" y1="253" x2="-5768.4" y2="254" xlink:href="#dg"/><linearGradient id="eu" x1="-5766.6" y1="251.1" x2="-5765.2" y2="252.2" xlink:href="#dg"/><linearGradient id="ev" x1="-5763.4" y1="249.3" x2="-5762.1" y2="250.3" xlink:href="#dg"/><linearGradient id="ew" x1="-5760.3" y1="247.5" x2="-5758.9" y2="248.5" xlink:href="#dg"/><linearGradient id="ex" x1="-5757.1" y1="245.6" x2="-5755.7" y2="246.7" xlink:href="#dg"/><linearGradient id="ey" x1="-5753.9" y1="243.8" x2="-5752.5" y2="244.8" xlink:href="#dg"/><linearGradient id="f`" x1="-5788.8" y1="267.7" x2="-5787.4" y2="268.7" xlink:href="#dg"/><linearGradient id="fa" x1="-5785.6" y1="265.9" x2="-5784.3" y2="266.9" xlink:href="#dg"/><linearGradient id="fb" x1="-5782.5" y1="264" x2="-5781.1" y2="265" xlink:href="#dg"/><linearGradient id="fc" x1="-5779.3" y1="262.2" x2="-5777.9" y2="263.2" xlink:href="#dg"/><linearGradient id="fd" x1="-5776.1" y1="260.3" x2="-5774.7" y2="261.4" xlink:href="#dg"/><linearGradient id="fe" x1="-5773" y1="258.5" x2="-5771.6" y2="259.5" xlink:href="#dg"/><linearGradient id="ff" x1="-5769.8" y1="256.7" x2="-5768.4" y2="257.7" xlink:href="#dg"/><linearGradient id="fg" x1="-5766.6" y1="254.8" x2="-5765.2" y2="255.8" xlink:href="#dg"/><linearGradient id="fh" x1="-5763.4" y1="253" x2="-5762.1" y2="254" xlink:href="#dg"/><linearGradient id="fi" x1="-5760.3" y1="251.1" x2="-5758.9" y2="252.2" xlink:href="#dg"/><linearGradient id="fj" x1="-5757.1" y1="249.3" x2="-5755.7" y2="250.3" xlink:href="#dg"/><linearGradient id="fk" x1="-5753.9" y1="247.5" x2="-5752.5" y2="248.5" xlink:href="#dg"/><linearGradient id="fl" x1="-5750.8" y1="245.6" x2="-5749.4" y2="246.7" xlink:href="#dg"/><linearGradient id="fm" x1="-5785.6" y1="269.5" x2="-5784.3" y2="270.6" xlink:href="#dg"/><linearGradient id="fn" x1="-5782.5" y1="267.7" x2="-5781.1" y2="268.7" xlink:href="#dg"/><linearGradient id="fo" x1="-5779.3" y1="265.9" x2="-5777.9" y2="266.9" xlink:href="#dg"/><linearGradient id="fp" x1="-5776.1" y1="264" x2="-5774.7" y2="265" xlink:href="#dg"/><linearGradient id="fq" x1="-5773" y1="262.2" x2="-5771.6" y2="263.2" xlink:href="#dg"/><linearGradient id="fr" x1="-5769.8" y1="260.3" x2="-5768.4" y2="261.4" xlink:href="#dg"/><linearGradient id="fs" x1="-5766.6" y1="258.5" x2="-5765.2" y2="259.5" xlink:href="#dg"/><linearGradient id="ft" x1="-5763.4" y1="256.7" x2="-5762.1" y2="257.7" xlink:href="#dg"/><linearGradient id="fu" x1="-5760.3" y1="254.8" x2="-5758.9" y2="255.8" xlink:href="#dg"/><linearGradient id="fv" x1="-5757.1" y1="253" x2="-5755.7" y2="254" xlink:href="#dg"/><linearGradient id="fw" x1="-5753.9" y1="251.1" x2="-5752.5" y2="252.2" xlink:href="#dg"/><linearGradient id="fx" x1="-5750.8" y1="249.3" x2="-5749.4" y2="250.3" xlink:href="#dg"/><linearGradient id="fy" x1="-5747.6" y1="247.5" x2="-5746.2" y2="248.5" xlink:href="#dg"/><linearGradient id="g`" x1="-5782.5" y1="271.4" x2="-5781.1" y2="272.4" xlink:href="#dg"/><linearGradient id="ga" x1="-5779.3" y1="269.5" x2="-5777.9" y2="270.6" xlink:href="#dg"/><linearGradient id="gb" x1="-5776.1" y1="267.7" x2="-5774.7" y2="268.7" xlink:href="#dg"/><linearGradient id="gc" x1="-5773" y1="265.9" x2="-5771.6" y2="266.9" xlink:href="#dg"/><linearGradient id="gd" x1="-5765.9" y1="260.6" x2="-5762.8" y2="262.9" xlink:href="#dg"/><linearGradient id="ge" x1="-5757.1" y1="256.7" x2="-5755.7" y2="257.7" xlink:href="#dg"/><linearGradient id="gf" x1="-5753.9" y1="254.8" x2="-5752.5" y2="255.8" xlink:href="#dg"/><linearGradient id="gg" x1="-5750.8" y1="253" x2="-5749.4" y2="254" xlink:href="#dg"/><linearGradient id="gh" x1="-5747.6" y1="251.1" x2="-5746.2" y2="252.2" xlink:href="#dg"/><linearGradient id="gi" x1="-5744.4" y1="249.3" x2="-5743" y2="250.3" xlink:href="#dg"/><linearGradient id="gj" x1="430.1" y1="387.5" x2="456.5" y2="386.7" xlink:href="#e"/><linearGradient id="gk" x1="401.5" y1="406.9" x2="432.1" y2="405.9" xlink:href="#e"/><linearGradient id="gl" x1="433.5" y1="340.2" x2="457.5" y2="339.5" xlink:href="#e"/><linearGradient id="gm" x1="409.4" y1="350" x2="441.8" y2="349.5" xlink:href="#e"/><linearGradient id="gn" x1="459.2" y1="234.9" x2="469.4" y2="234.6" gradientTransform="matrix(1, 0, 0, 1, 0, 0)" gradientUnits="userSpaceOnUse"><stop offset="0" stop-color="#b92222"/><stop offset=".2" stop-color="#dd2f2f"/><stop offset=".9" stop-color="#ff6757"/></linearGradient><linearGradient id="go" x1="367.3" y1="266.3" x2="386.3" y2="265.7" gradientTransform="matrix(1, 0, 0, 1, 0, 0)" gradientUnits="userSpaceOnUse"><stop offset="0" stop-color="#ce8074"/><stop offset="1" stop-color="#fcab92"/></linearGradient><linearGradient id="gp" x1="-7266.5" y1="203.1" x2="-7240.7" y2="203.1" gradientTransform="translate(-6819.6) rotate(-180) scale(1 -1)" xlink:href="#go"/><linearGradient id="gq" x1="-7272" y1="191.1" x2="-7237.1" y2="191.1" gradientTransform="translate(-6819.6) rotate(-180) scale(1 -1)" xlink:href="#e"/><linearGradient id="gr" x1="440.2" y1="292.2" x2="432.4" y2="228.2" gradientTransform="matrix(1, 0, 0, 1, 0, 0)" gradientUnits="userSpaceOnUse"><stop offset="0" stop-color="#ffbc00"/><stop offset="1" stop-color="#ff9a21"/></linearGradient><linearGradient id="gs" x1="384.1" y1="265.5" x2="424.4" y2="264.2" xlink:href="#gn"/><linearGradient id="gt" x1="424.8" y1="217" x2="450.5" y2="217" xlink:href="#gr"/></defs><path class="ie" d="M59.8,240.4c-1.9-63.8,117.6-167.2,207.1-174.3,120.7-9.6,236.5,103.7,235.1,201.6-2.3,161.6-322.7,242.7-358.4,196.9-14.7-18.9,26.2-50.5,17-115.2-10.2-72.4-99.4-58-100.9-109Z"/><g><path class="hh" d="M414.6,371.4c-1.2,0-2.4,0-3.6,.1l-43.4-279.9c20.5-4.8,35.8-23.2,35.8-45.2S382.7,0,357,0s-46.4,20.8-46.4,46.4,2.4,16.8,6.5,23.7L80.7,236.1c-8.5-9.3-20.7-15.1-34.3-15.1-25.6,0-46.4,20.8-46.4,46.4s20.8,46.4,46.4,46.4,31.7-9.1,39.9-22.6l284,112.9c-1.4,4.4-2.1,9-2.1,13.8,0,25.6,20.8,46.4,46.4,46.4s46.4-20.8,46.4-46.4-20.8-46.4-46.4-46.4ZM89.5,284.8c2.2-5.4,3.4-11.3,3.4-17.4,0-9.5-2.9-18.3-7.8-25.7L321.2,75.9c8.5,10.3,21.4,16.9,35.8,16.9s2.4,0,3.6-.1l43.4,279.9c-13.7,3.2-25,12.5-31.1,24.8L89.5,284.8Z"/><path class="hk" d="M354.9,26.9c-8,.6-15.6,3.7-21.3,8.4-1,.8-3.5,2.9-4,4-.7,1.4-.6,3.1,.2,4.3,1.2,1.8,3.5,2.6,5.6,1.6,.7-.4,2.9-2.6,4.4-3.7,5.5-4.3,13-6.6,20.8-5.9,7.6,.7,13.7,4.1,18.3,8.7,.5,.5,.8,.8,1.6,1.1,3.8,1.5,7.5-2.8,5.2-6.4-.5-.8-1.9-2-2.7-2.7-1-.9-1.8-1.6-3-2.4-7.1-5.1-15.9-7.7-25.2-7m1.1,15c-6,.5-10.6,2.8-14.6,6.6-4.6,4.5,1.4,10.1,5.5,6.9,.3-.2,.6-.7,.9-.9,.3-.2,.6-.5,1-.8,2.6-2,6.6-3.6,11-3,2,.3,3.8,.9,5.3,1.8,.8,.4,1.5,.9,2.1,1.4l1.8,1.7c4.1,2.8,10.8-2.7,4.2-8-4.8-3.9-10.3-6.2-17.1-5.6Zm.8,16.2c-3.6,.5-6.7,3.8-6.1,8.1,.5,3.6,3.8,6.6,8,6.1,3.7-.5,6.7-3.9,6.1-8-.5-3.6-3.9-6.7-8-6.1Zm-26.7-28.1c0-.2,0,0,.2-.2,1.3-1.1,4.7-3.2,6-3.9,2.4-1.3,4.6-2.3,7.3-3.2,5.7-1.9,12.3-2.7,18.8-2,5.9,.6,11.7,2.5,16.3,4.9,2.5,1.4,4.3,2.6,6.4,4.1l4.9,4.4c.2,.1,.6,.3,.8,.5,1.6,.4,2.3,.7,3.9,0,2.2-1,3.1-3.9,1.7-6.2-.3-.5-1.8-2-2.3-2.4-3.7-3.1-6-5.3-10.8-7.7-9.6-4.9-19.1-7.3-30.3-6.3-7.1,.6-15.3,3-21.3,6.5-2,1.2-3.9,2.3-5.6,3.6-1.5,1.2-4.4,3.4-5.6,4.7l-1.1,1.2c-3,3.8,1.4,9,5.7,6.5l2.4-2.2c.6-.6,1.9-1.8,2.6-2.2Z"/><path class="hk" d="M30.4,280.8c-3.4,.8-6.9,1.9-10,3.6,.7,.8,1.4,1.6,2.1,2.4,4,4,9.1,7,14.6,8.4-1.7-1.9-3-4.3-4.1-6.5-1.1-2.5-2-5.1-2.7-7.8m40.6,3.6c-3.1-1.6-6.6-2.8-10-3.6-.7,2.7-1.6,5.3-2.7,7.8-1,2.3-2.4,4.6-4.1,6.5,5.5-1.5,10.5-4.4,14.6-8.4,.8-.8,1.5-1.5,2.1-2.4Zm-9.5-36.2c3.6-.9,7.3-2.2,10.5-4-1-1.3-2-2.5-3.1-3.6-4-4-9.1-7-14.6-8.4,1.7,1.9,3,4.3,4.1,6.5,1.4,3,2.4,6.3,3.1,9.6Zm-42-4c3.2,1.9,7,3.1,10.5,4,.7-3.3,1.7-6.5,3.1-9.6,1-2.3,2.4-4.6,4.1-6.5-5.5,1.5-10.5,4.4-14.6,8.4-1.1,1.1-2.2,2.4-3.1,3.6Zm24.6,5.8v-18.7c-3.7,1.1-6.4,5.6-7.8,8.8-1.3,2.8-2.2,5.8-2.9,8.9,3.5,.6,7.1,1,10.7,1.1Zm-10.3,30.2c.6,2.4,1.4,4.8,2.5,7.1,1.5,3.2,4.1,7.7,7.8,8.8v-16.9c-3.4,0-6.9,.4-10.3,1Zm13.7-1v16.9c3.7-1.1,6.4-5.6,7.8-8.8,1-2.3,1.8-4.7,2.5-7.1-3.4-.6-6.8-.9-10.3-1Zm0-48v18.7c3.6,0,7.2-.4,10.7-1.1-.7-3-1.6-6-2.9-8.9-1.5-3.2-4.1-7.7-7.8-8.8Zm26.4,15.8c-3.6,2.1-7.7,3.6-11.8,4.5,.6,3.4,.9,6.9,1,10.4h15.3c-.3-5.3-1.8-10.4-4.5-15Zm-26.4,15h12.2c0-3.3-.4-6.5-.9-9.7-3.7,.7-7.6,1-11.4,1.1v8.6Zm-15.6,0h12.2v-8.6c-3.8,0-7.6-.4-11.4-1.1-.5,3.2-.8,6.5-.9,9.7Zm-18.7,0h15.3c0-3.5,.4-7,1-10.4-4-1-8.2-2.4-11.8-4.5-2.7,4.6-4.2,9.7-4.5,15Zm15.3,3.4H13c.3,5.8,2.1,11.4,5.4,16.3,3.5-1.9,7.4-3.2,11.2-4.1-.8-4-1.2-8.1-1.3-12.2Zm4.6,11.5c3.6-.6,7.3-1,11-1.1v-10.5h-12.2c0,3.9,.5,7.7,1.2,11.5Zm25.5,0c.7-3.8,1.1-7.7,1.2-11.5h-12.2v10.5c3.7,0,7.4,.4,11,1.1Zm19.9-11.5h-15.3c0,4.1-.5,8.2-1.3,12.2,3.8,.9,7.8,2.2,11.2,4.1,3.2-4.9,5.1-10.5,5.4-16.3Zm-32.6-37.8c9.6,0,18.7,3.8,25.5,10.6,6.8,6.8,10.6,15.9,10.6,25.5s-3.8,18.7-10.6,25.5c-6.8,6.8-15.9,10.6-25.5,10.6s-18.7-3.8-25.5-10.6c-6.8-6.8-10.6-15.9-10.6-25.5s3.8-18.7,10.6-25.5c6.8-6.8,15.9-10.6,25.5-10.6Z"/><path class="hk" d="M446.1,438.7l-2.3-2.4c-1-1-1.2-2.5-.5-3.7,1.3-2.3,2.4-4.8,3.1-7.3,.4-1.3,1.6-2.3,3-2.2h3.3c1.7,0,3.1-1.4,3.2-3.1v-6.4c0-1.7-1.3-3.1-3.1-3.2h-3.3c-1.4,0-2.6-1-3-2.3-.7-2.5-1.7-5-3-7.4-.7-1.2-.5-2.7,.5-3.7l2.4-2.3c1.2-1.2,1.2-3.2,0-4.4l-4.5-4.5c-1.2-1.2-3.2-1.2-4.4,0l-2.4,2.3c-1,1-2.5,1.2-3.7,.5-2.3-1.3-4.8-2.4-7.3-3.1-1.3-.4-2.3-1.6-2.3-3v-3.3c0-1.7-1.4-3.1-3.1-3.1h-6.4c-1.7,0-3.1,1.3-3.2,3.1v3.3c0,1.4-1,2.6-2.3,3-2.5,.7-5,1.7-7.4,3-1.2,.7-2.7,.5-3.7-.5l-2.3-2.4c-1.2-1.2-3.2-1.2-4.4,0l-4.5,4.5c-1.2,1.2-1.2,3.2,0,4.4l2.3,2.4c1,1,1.2,2.5,.5,3.7-1.3,2.3-2.4,4.8-3.1,7.3-.4,1.3-1.6,2.3-3,2.3h-3.3c-1.7,0-3.1,1.4-3.2,3.1v6.4c0,1.7,1.3,3.1,3.1,3.2h3.3c1.4,0,2.6,1,3,2.3,.7,2.5,1.7,5,3,7.4,.7,1.2,.5,2.7-.5,3.7l-2.4,2.3c-1.2,1.2-1.2,3.2,0,4.4l4.5,4.5c1.2,1.2,3.2,1.2,4.4,0l2.4-2.3c1-1,2.5-1.2,3.7-.5,2.3,1.3,4.8,2.4,7.3,3.1,1.3,.4,2.3,1.6,2.3,3v3.3c0,1.7,1.4,3.1,3.1,3.2h6.4c1.7,0,3.1-1.3,3.2-3.1v-3.3c0-1.4,1-2.6,2.3-3,2.5-.7,5-1.7,7.4-3,1.2-.7,2.7-.5,3.7,.5l2.3,2.4c1.2,1.2,3.2,1.2,4.4,0l4.5-4.5c1.2-1.2,1.2-3.2,0-4.4m-20.9-8c-5.9,4.2-14.1,4.2-20-.1-9.7-7.1-9.6-21.4,.2-28.3,5.9-4.2,14.1-4.2,20,.1,9.7,7.1,9.6,21.4-.2,28.3Z"/></g><circle class="nk" cx="227.5" cy="167.2" r="109.1"/><g><path class="jf" d="M102.5,269l55.1,29.4c1.7,.9,3.7,.9,5.4,0l184.1-105.9c3.8-2.2,3.7-7.8-.3-9.8l-67.5-34.2c-1.8-.9-3.9-.8-5.5,.3l-171.7,110.7c-3.6,2.3-3.3,7.6,.4,9.6Z"/><g><path class="im" d="M318.6,183.4l-19.4-12.7s10.8-9.5,15.8-4.9c5,4.7,6.7,13.3,6.7,13.3l-3,4.3Z"/><path class="ly" d="M203.7,253l-20.2-14.3s12.2-8.8,17.6-6.3,2.7,20.6,2.7,20.6Z"/><g><g><path class="m`" d="M197.9,239.7s0,0,0,0c0,0,0,0,0,0-.2,0-.3-.2-.5-.2,0,0-.1,0-.2,0-.1,0-.2,0-.3-.1,0,0-.2,0-.2,0h-.1c0,0,0,0-.1,0h0c0,0-.2,0-.3,0-.1,0-.2,0-.3,0,0,0,0,0-.1,0-.2,0-.4,0-.6,0,0,0-.1,0-.2,0-.3,0-.5,0-.8,0-.2,0-.4,0-.6,0-.2,0-.4,0-.6,0-.1,0-.2,0-.3,0-.2,0-.4,0-.5,.1,0,0-.2,0-.3,0h0c-.1,0-.2,0-.4,.1h0s0,0-.1,0c0,0-.2,0-.3,0,0,0-.1,0-.2,0-.1,0-.2,0-.3,.1,0,0-.2,0-.3,.1-.2,0-.4,.2-.6,.2-.1,0-.2,.1-.3,.2,0,0-.2,0-.2,.1-.1,0-.2,.1-.4,.2-.2,0-.3,.2-.5,.3-.2,.1-.4,.3-.7,.4-.2,.1-.4,.3-.7,.4-.1,0-.3,.2-.4,.3-.3,.2-.6,.4-.9,.7-.2,.1-.3,.3-.5,.4-.3,.2-.5,.4-.8,.7-.2,.1-.3,.3-.5,.4-.2,.2-.4,.4-.6,.6-.3,.3-.6,.6-.9,1-.2,.2-.4,.4-.5,.6-.2,.2-.4,.4-.5,.7-.2,.3-.4,.5-.6,.8-.1,.2-.3,.3-.4,.5-.2,.3-.5,.7-.7,1,0,.1-.2,.3-.3,.4-.2,.2-.3,.5-.4,.7-.2,.2-.3,.5-.4,.7,0,0,0,.1-.1,.2-.2,.4-.5,.8-.7,1.2,0,.1-.1,.3-.2,.4-.2,.4-.4,.9-.6,1.3,0,0,0,.1,0,.2-.1,.3-.2,.5-.3,.8-.1,.3-.2,.5-.3,.8,0,.2-.1,.3-.2,.5-.1,.4-.3,.7-.4,1.1,0,.2-.1,.4-.2,.6,0,.3-.2,.7-.3,1,0,.2-.1,.5-.2,.7,0,.2,0,.4-.1,.7,0,0,0,.1,0,.2,0,.2,0,.4,0,.6,0,0,0,.2,0,.2,0,.4-.1,.8-.1,1.2,0,.2,0,.3,0,.5,0,.2,0,.3,0,.5,0,.2,0,.4,0,.6,0,.2,0,.3,0,.5s0,.3,0,.4c0,.1,0,.2,0,.3,0,0,0,0,0,.1,0,.1,0,.2,0,.3,0,.2,0,.4,0,.6,0,.1,0,.3,0,.4,0,.2,0,.3,0,.5,0,0,0,0,0,.1,0,.1,0,.3,0,.4,0,.2,0,.3,.1,.5h0c0,.2,0,.3,.1,.5,0,.1,0,.2,0,.3,0,0,0,.1,0,.2,0,0,0,0,0,0,0,0,0,.2,0,.3,.2,.4,.3,.7,.5,1.1,0,0,0,.2,.1,.2,0,0,0,0,0,0,0,.1,.1,.2,.2,.3,0,0,0,.1,.1,.2,0,0,0,0,0,0,0,.1,.2,.2,.2,.3,0,0,.1,.2,.2,.3,.2,.2,.4,.5,.7,.7l.2,.2c0,0,.1,0,.2,.1,.1,.1,.3,.2,.4,.3,0,0,.1,0,.2,.1,0,0,0,0-.1,0l-7.9-4.6c-.6-.4-1.2-.8-1.7-1.4-1.5-1.7-2.3-4.2-2.4-7.5,0-.5,0-1,0-1.5,0-.2,0-.3,0-.5,0-.2,0-.5,0-.7,0-.1,0-.2,0-.3,0-.4,.1-.7,.2-1.1,0-.2,0-.3,0-.5,0,0,0-.2,0-.2,0-.2,.1-.5,.2-.7,0-.2,0-.4,.2-.6,0-.1,0-.2,.1-.4,0-.2,.1-.4,.2-.6,0-.2,0-.3,.1-.5,0-.2,.2-.4,.2-.6,0-.2,.1-.3,.2-.5,0,0,0-.2,0-.2,.2-.4,.3-.8,.5-1.2,0,0,0,0,0,0,0,0,0-.1,0-.2,.1-.3,.3-.6,.4-1,0-.1,.1-.2,.2-.4,0-.1,.1-.3,.2-.4,0-.1,.1-.3,.2-.4,.2-.3,.3-.6,.5-.9,0,0,0-.2,.1-.2,0,0,0,0,0,0,.2-.4,.5-.8,.7-1.2,0,0,0-.1,.1-.2,0-.1,.2-.3,.3-.4,.1-.2,.3-.4,.4-.6,0-.1,.2-.2,.3-.4,.1-.2,.3-.3,.4-.5,0-.1,.2-.2,.3-.4,.1-.2,.2-.3,.4-.4,.2-.2,.4-.4,.5-.7,0,0,.2-.2,.2-.3,0-.1,.2-.2,.3-.3,.3-.3,.6-.7,.9-1,.1-.1,.2-.2,.3-.3,0,0,.2-.2,.3-.3,.2-.2,.3-.3,.5-.4,.3-.2,.5-.5,.8-.7,.2-.1,.3-.3,.5-.4,.3-.2,.6-.4,.9-.7,.1,0,.3-.2,.4-.3,.4-.3,.9-.6,1.3-.8,.3-.2,.6-.3,.9-.5,0,0,.2,0,.2-.1,.2-.1,.4-.2,.7-.3,0,0,0,0,.2,0,0,0,0,0,0,0,.2,0,.4-.2,.6-.2,0,0,.1,0,.2,0,.3,0,.5-.2,.7-.2,0,0,0,0,0,0,0,0,0,0,0,0,.4-.1,.8-.2,1.1-.2h0c.3,0,.6,0,.9,0,0,0,0,0,.1,0,0,0,0,0,0,0,.3,0,.5,0,.8,0,0,0,0,0,0,0,0,0,0,0,.1,0,.2,0,.4,0,.6,0,0,0,0,0,.1,0,0,0,0,0,0,0,.2,0,.5,0,.7,.2h0c.2,0,.4,.2,.6,.2,0,0,0,0,0,0,0,0,0,0,0,0,.1,0,.2,.1,.4,.2,0,0,0,0,.2,0,0,0,0,0,0,0,0,0,0,0,0,0l8.1,4.7Z"/><path class="kd" d="M201.9,248.5c0,8.8-6.1,19.5-13.8,23.9-3.9,2.2-7.4,2.4-9.9,.9,0,0,0,0-.1,0,0,0,0,0,0,0-.2,0-.3-.2-.4-.3,0,0-.1,0-.2-.1,0,0-.1,0-.2-.2-.2-.2-.5-.4-.7-.7,0,0-.1-.2-.2-.3,0,0-.2-.2-.2-.3,0,0,0,0,0,0,0,0,0-.1-.1-.2,0,0-.1-.2-.2-.3,0,0,0,0,0,0,0,0,0-.2-.1-.2-.2-.3-.4-.7-.5-1.1,0,0,0-.2,0-.3,0,0,0,0,0,0,0,0,0-.1,0-.2,0,0,0-.2,0-.3,0-.2,0-.3-.1-.5h0c0-.2,0-.3-.1-.5,0-.1,0-.3,0-.4,0,0,0,0,0-.1,0-.2,0-.3,0-.5,0-.1,0-.3,0-.4,0-.2,0-.4,0-.6,0-.1,0-.2,0-.3,0,0,0,0,0-.1,0,0,0-.2,0-.3,0-.1,0-.3,0-.4s0-.3,0-.5c0-.2,0-.4,0-.6,0-1,.2-2,.4-2.9,0,0,0-.1,0-.2,.3-1.5,.7-3,1.3-4.5,0-.3,.2-.5,.3-.8,.1-.3,.2-.5,.3-.8,.5-1.2,1.1-2.3,1.7-3.4,.1-.2,.3-.5,.4-.7,2.3-3.7,5.3-7,8.6-9.1,.2-.1,.4-.3,.7-.4,.2,0,.3-.2,.5-.3,.3-.2,.6-.3,.9-.5h.3l.2-.2c.1,0,.2,0,.3-.1,.1,0,.2,0,.3-.1,0,0,.1,0,.2,0,0,0,.2,0,.3,0,0,0,0,0,.1,0h0c.1,0,.2,0,.4-.1,.1,0,.2,0,.3,0,.2,0,.4,0,.5-.1,.1,0,.2,0,.3,0,.2,0,.4,0,.6,0,.1,0,.2,0,.4,0h.2c.3,0,.5,0,.8,0,0,0,.1,0,.2,0,.2,0,.5,0,.7,0,0,0,0,0,0,0,0,0,.2,0,.3,0,.1,0,.2,0,.3,0h0c0,0,.2,0,.2,0,0,0,.2,0,.2,0,.2,0,.3,.1,.5,.2,.2,0,.4,.2,.6,.3,2.2,1.2,3.7,3.7,4,7.2,0,.5,0,1.1,0,1.7Z"/></g><path class="kp" d="M197.6,251c0,6.1-4.2,13.4-9.5,16.5-3.1,1.8-5.9,1.7-7.7,0,1.5,.2,3.2-.2,5-1.3,5.3-3,9.5-10.4,9.5-16.5,0-2.4-.7-4.3-1.9-5.4,2.7,.4,4.5,2.8,4.5,6.7Z"/><path class="lr" d="M195,249.7c0,6.1-4.2,13.4-9.5,16.5-1.8,1.1-3.6,1.5-5,1.3-1.2-1.1-1.9-3-1.9-5.4,0-6.1,4.2-13.4,9.5-16.5,1.8-1.1,3.6-1.5,5-1.3,1.2,1.1,1.9,3,1.9,5.4Z"/><g><path class="ld" d="M191.6,251.6h0s0,0-.1,0c0,0,0,0,0,0,0,0,0,0,0,0,0,0,0,0,0,0h0s0,0,0,0c0,0,0,0,0,0h0c0,0-.1,0-.2,0,0,0,0,0,0,0,0,0-.1,0-.2,0,0,0,0,0-.1,0,0,0,0,0-.1,0,0,0,0,0,0,0,0,0,0,0-.1,0,0,0,0,0,0,0h0s0,0,0,0h0s0,0,0,0c0,0,0,0,0,0,0,0,0,0,0,0,0,0,0,0,0,0,0,0,0,0-.1,0,0,0,0,0,0,0,0,0,0,0,0,0h0c0,0,0,0-.1,.1,0,0-.1,0-.2,.1,0,0-.1,0-.2,.1,0,0,0,0-.1,0,0,0-.2,.1-.2,.2,0,0,0,0-.1,.1,0,0-.1,.1-.2,.2,0,0,0,0-.1,.1,0,0-.1,.1-.2,.2,0,0-.2,.2-.2,.3,0,0,0,.1-.1,.2,0,0,0,.1-.1,.2,0,0-.1,.1-.2,.2,0,0,0,0,0,.1,0,0-.1,.2-.2,.3,0,0,0,0,0,.1,0,0,0,.1-.1,.2,0,0,0,.1-.1,.2,0,0,0,0,0,0,0,.1-.1,.2-.2,.3,0,0,0,0,0,.1,0,.1-.1,.2-.2,.3,0,0,0,0,0,0,0,0,0,.1,0,.2,0,0,0,.1,0,.2,0,0,0,0,0,.1,0,0,0,.2,0,.3,0,0,0,0,0,.1,0,0,0,.2,0,.3,0,0,0,.1,0,.2,0,0,0,.1,0,.2h0c0,0,0,.1,0,.2,0,0,0,0,0,0,0,.1,0,.2,0,.3,0,0,0,0,0,.1,0,0,0,0,0,.1,0,0,0,.1,0,.2,0,0,0,0,0,.1s0,0,0,.1h0v.2c0,0,0,.1,0,.1,0,0,0,0,0,.1,0,0,0,0,0,.1h0c0,0,0,.1,0,.1,0,0,0,0,0,.1h0s0,0,0,.1c0,0,0,0,0,0,0,0,0,0,0,0h0s0,0,0,0c0,0,0,.2,.1,.3,0,0,0,0,0,0h0s0,0,0,.1c0,0,0,0,0,0h0s0,0,0,0c0,0,0,0,0,0,0,0,.1,.1,.2,.2h0c0,0,0,0,0,0,0,0,0,0,.1,0,0,0,0,0,0,0,0,0,0,0,0,0l-2-1.2c-.2,0-.3-.2-.4-.4-.4-.4-.6-1.1-.6-1.9,0-.1,0-.3,0-.4,0,0,0,0,0-.1,0,0,0-.1,0-.2,0,0,0,0,0,0,0,0,0-.2,0-.3,0,0,0,0,0-.1,0,0,0,0,0,0,0,0,0-.1,0-.2,0,0,0-.1,0-.2,0,0,0,0,0,0,0,0,0,0,0-.1,0,0,0,0,0-.1,0,0,0-.1,0-.2,0,0,0,0,0-.1,0,0,0,0,0,0,0-.1,0-.2,.1-.3h0c0-.1,0-.2,.1-.3,0,0,0,0,0,0h0c0-.1,0-.2,0-.2,0,0,0-.1,.1-.2h0c0-.2,.1-.3,.2-.4,0,0,0,0,0,0,0,0,0,0,0-.1,0,0,0-.1,.1-.2,0,0,0,0,0,0,0,0,0,0,0-.1,0,0,0,0,0,0,0,0,0,0,0-.1,0,0,0-.1,.1-.2,0,0,0,0,0,0,0,0,0,0,0,0,0,0,.2-.2,.2-.3,0,0,0,0,0,0,0,0,0,0,0,0,0,0,0,0,.1-.1,0,0,.1-.1,.2-.2,0,0,0,0,.1-.1,0,0,.1-.1,.2-.2,0,0,0,0,.1,0,.1,0,.2-.1,.3-.2,0,0,.2,0,.2-.1,0,0,0,0,0,0,0,0,.1,0,.2,0,0,0,0,0,0,0h0c0,0,.1,0,.2,0h0c0,0,.1,0,.2,0h0c0,0,.2,0,.3,0h0c0,0,.2,0,.2,0,0,0,0,0,0,0,0,0,0,0,0,0,0,0,.1,0,.2,0h0s0,0,0,0c0,0,.1,0,.2,0,0,0,0,0,0,0h0c0,0,.1,0,.2,0h0c0,0,.1,0,.2,0h0s0,0,0,0c0,0,0,0,0,0h0l2.1,1.3Z"/><path class="nm" d="M192.7,253.9c0,2.3-1.6,5-3.5,6.1-1,.6-1.9,.6-2.5,.2,0,0,0,0,0,0,0,0,0,0,0,0,0,0,0,0-.1,0,0,0,0,0,0,0,0,0,0,0,0,0,0,0-.1-.1-.2-.2,0,0,0,0,0,0,0,0,0,0,0,0h0s0,0,0,0c0,0,0,0,0,0h0s0,0,0,0c0,0,0-.2-.1-.3,0,0,0,0,0,0h0s0,0,0,0c0,0,0,0,0,0,0,0,0,0,0-.1h0s0,0,0-.1c0,0,0,0,0-.1h0c0,0,0-.1,0-.2,0,0,0,0,0-.1,0,0,0,0,0-.1h0v-.2s0,0,0-.1,0,0,0-.1c0,0,0-.1,0-.2,0-.2,0-.5,0-.8h0c0-.4,.2-.8,.3-1.2,0,0,0-.1,0-.2,0,0,0-.1,0-.2,.1-.3,.3-.6,.4-.9,0,0,0-.1,.1-.2,.6-1,1.4-1.8,2.2-2.4,0,0,.1,0,.2-.1,0,0,0,0,.1,0,0,0,.2,0,.2-.1h.1c0,0,0,0,0,0,0,0,0,0,0,0,0,0,0,0,0,0,0,0,0,0,0,0h0s0,0,0,0c0,0,0,0,0,0,0,0,0,0,.1,0,0,0,0,0,0,0,0,0,.1,0,.1,0,0,0,0,0,0,0h0c0,0,.1,0,.2,0,0,0,0,0,0,0,0,0,.1,0,.2,0h0s0,0,0,0c0,0,0,0,0,0h0s0,0,0,0c0,0,0,0,0,0,0,0,0,0,.1,0,0,0,.1,0,.2,0,.6,.3,.9,1,1,1.9,0,.1,0,.3,0,.4Z"/></g></g><g><g><path class="od" d="M312.8,173.6s0,0,0,0c0,0,0,0,0,0-.2,0-.3-.2-.5-.2,0,0-.1,0-.2,0-.1,0-.2,0-.3-.1,0,0-.2,0-.2,0h-.1c0,0,0,0-.1,0h0c0,0-.2,0-.3,0-.1,0-.2,0-.3,0,0,0,0,0-.1,0-.2,0-.4,0-.6,0,0,0-.1,0-.2,0-.3,0-.5,0-.8,0-.2,0-.4,0-.6,0-.2,0-.4,0-.6,0-.1,0-.2,0-.3,0-.2,0-.4,0-.5,.1,0,0-.2,0-.3,0h0c-.1,0-.2,0-.4,.1h0s0,0-.1,0c0,0-.2,0-.3,0,0,0-.1,0-.2,0-.1,0-.2,0-.3,.1,0,0-.2,0-.3,.1-.2,0-.4,.2-.6,.2-.1,0-.2,.1-.3,.2,0,0-.2,0-.2,.1-.1,0-.2,.1-.4,.2-.2,0-.3,.2-.5,.3-.2,.1-.4,.3-.7,.4-.2,.1-.4,.3-.7,.4-.1,0-.3,.2-.4,.3-.3,.2-.6,.4-.9,.7-.2,.1-.3,.3-.5,.4-.3,.2-.5,.4-.8,.7-.2,.1-.3,.3-.5,.4-.2,.2-.4,.4-.6,.6-.3,.3-.6,.6-.9,1-.2,.2-.4,.4-.5,.6-.2,.2-.4,.4-.5,.7-.2,.3-.4,.5-.6,.8-.1,.2-.3,.3-.4,.5-.2,.3-.5,.7-.7,1,0,.1-.2,.3-.3,.4-.2,.2-.3,.5-.4,.7-.2,.2-.3,.5-.4,.7,0,0,0,.1-.1,.2-.2,.4-.5,.8-.7,1.2,0,.1-.1,.3-.2,.4-.2,.4-.4,.9-.6,1.3,0,0,0,.1,0,.2-.1,.3-.2,.5-.3,.8-.1,.3-.2,.5-.3,.8,0,.2-.1,.3-.2,.5-.1,.4-.3,.7-.4,1.1,0,.2-.1,.4-.2,.6,0,.3-.2,.7-.3,1,0,.2-.1,.5-.2,.7,0,.2,0,.4-.1,.7,0,0,0,.1,0,.2,0,.2,0,.4,0,.6,0,0,0,.2,0,.2,0,.4-.1,.8-.1,1.2,0,.2,0,.3,0,.5,0,.2,0,.3,0,.5,0,.2,0,.4,0,.6,0,.2,0,.3,0,.5s0,.3,0,.4c0,.1,0,.2,0,.3,0,0,0,0,0,.1,0,.1,0,.2,0,.3,0,.2,0,.4,0,.6,0,.1,0,.3,0,.4,0,.2,0,.3,0,.5,0,0,0,0,0,.1,0,.1,0,.3,0,.4,0,.2,0,.3,.1,.5h0c0,.2,0,.3,.1,.5,0,.1,0,.2,0,.3,0,0,0,.1,0,.2,0,0,0,0,0,0,0,0,0,.2,0,.3,.2,.4,.3,.7,.5,1.1,0,0,0,.2,.1,.2,0,0,0,0,0,0,0,.1,.1,.2,.2,.3,0,0,0,.1,.1,.2,0,0,0,0,0,0,0,.1,.2,.2,.2,.3,0,0,.1,.2,.2,.3,.2,.2,.4,.5,.7,.7l.2,.2c0,0,.1,0,.2,.1,.1,.1,.3,.2,.4,.3,0,0,.1,0,.2,.1,0,0,0,0-.1,0l-7.9-4.6c-.6-.4-1.2-.8-1.7-1.4-1.5-1.7-2.3-4.2-2.4-7.5,0-.5,0-1,0-1.5,0-.2,0-.3,0-.5,0-.2,0-.5,0-.7,0-.1,0-.2,0-.3,0-.4,.1-.7,.2-1.1,0-.2,0-.3,0-.5,0,0,0-.2,0-.2,0-.2,.1-.5,.2-.7,0-.2,0-.4,.2-.6,0-.1,0-.2,.1-.4,0-.2,.1-.4,.2-.6,0-.2,0-.3,.1-.5,0-.2,.2-.4,.2-.6,0-.2,.1-.3,.2-.5,0,0,0-.2,0-.2,.2-.4,.3-.8,.5-1.2,0,0,0,0,0,0,0,0,0-.1,0-.2,.1-.3,.3-.6,.4-1,0-.1,.1-.2,.2-.4,0-.1,.1-.3,.2-.4,0-.1,.1-.3,.2-.4,.2-.3,.3-.6,.5-.9,0,0,0-.2,.1-.2,0,0,0,0,0,0,.2-.4,.5-.8,.7-1.2,0,0,0-.1,.1-.2,0-.1,.2-.3,.3-.4,.1-.2,.3-.4,.4-.6,0-.1,.2-.2,.3-.4,.1-.2,.3-.3,.4-.5,0-.1,.2-.2,.3-.4,.1-.2,.2-.3,.4-.4,.2-.2,.4-.4,.5-.7,0,0,.2-.2,.2-.3,0-.1,.2-.2,.3-.3,.3-.3,.6-.7,.9-1,.1-.1,.2-.2,.3-.3,0,0,.2-.2,.3-.3,.2-.2,.3-.3,.5-.4,.3-.2,.5-.5,.8-.7,.2-.1,.3-.3,.5-.4,.3-.2,.6-.4,.9-.7,.1,0,.3-.2,.4-.3,.4-.3,.9-.6,1.3-.8,.3-.2,.6-.3,.9-.5,0,0,.2,0,.2-.1,.2-.1,.4-.2,.7-.3,0,0,0,0,.2,0,0,0,0,0,0,0,.2,0,.4-.2,.6-.2,0,0,.1,0,.2,0,.3,0,.5-.2,.7-.2,0,0,0,0,0,0,0,0,0,0,0,0,.4-.1,.8-.2,1.1-.2h0c.3,0,.6,0,.9,0,0,0,0,0,.1,0,0,0,0,0,0,0,.3,0,.5,0,.8,0,0,0,0,0,0,0,0,0,0,0,.1,0,.2,0,.4,0,.6,0,0,0,0,0,.1,0,0,0,0,0,0,0,.2,0,.5,0,.7,.2h0c.2,0,.4,.2,.6,.2,0,0,0,0,0,0,0,0,0,0,0,0,.1,0,.2,.1,.4,.2,0,0,0,0,.2,0,0,0,0,0,0,0,0,0,0,0,0,0l8.1,4.7Z"/><path class="ib" d="M316.9,182.5c0,8.8-6.1,19.5-13.8,23.9-3.9,2.2-7.4,2.4-9.9,.9,0,0,0,0-.1,0,0,0,0,0,0,0-.2,0-.3-.2-.4-.3,0,0-.1,0-.2-.1,0,0-.1,0-.2-.2-.2-.2-.5-.4-.7-.7,0,0-.1-.2-.2-.3,0,0-.2-.2-.2-.3,0,0,0,0,0,0,0,0,0-.1-.1-.2,0,0-.1-.2-.2-.3,0,0,0,0,0,0,0,0,0-.2-.1-.2-.2-.3-.4-.7-.5-1.1,0,0,0-.2,0-.3,0,0,0,0,0,0,0,0,0-.1,0-.2,0,0,0-.2,0-.3,0-.2,0-.3-.1-.5h0c0-.2,0-.3-.1-.5,0-.1,0-.3,0-.4,0,0,0,0,0-.1,0-.2,0-.3,0-.5,0-.1,0-.3,0-.4,0-.2,0-.4,0-.6,0-.1,0-.2,0-.3,0,0,0,0,0-.1,0,0,0-.2,0-.3,0-.1,0-.3,0-.4s0-.3,0-.5c0-.2,0-.4,0-.6,0-1,.2-2,.4-2.9,0,0,0-.1,0-.2,.3-1.5,.7-3,1.3-4.5,0-.3,.2-.5,.3-.8,.1-.3,.2-.5,.3-.8,.5-1.2,1.1-2.3,1.7-3.4,.1-.2,.3-.5,.4-.7,2.3-3.7,5.3-7,8.6-9.1,.2-.1,.4-.3,.7-.4,.2,0,.3-.2,.5-.3,.3-.2,.6-.3,.9-.5h.3l.2-.2c.1,0,.2,0,.3-.1,.1,0,.2,0,.3-.1,0,0,.1,0,.2,0,0,0,.2,0,.3,0,0,0,0,0,.1,0h0c.1,0,.2,0,.4-.1,.1,0,.2,0,.3,0,.2,0,.4,0,.5-.1,.1,0,.2,0,.3,0,.2,0,.4,0,.6,0,.1,0,.2,0,.4,0h.2c.3,0,.5,0,.8,0,0,0,.1,0,.2,0,.2,0,.5,0,.7,0,0,0,0,0,0,0,0,0,.2,0,.3,0,.1,0,.2,0,.3,0h0c0,0,.2,0,.2,0,0,0,.2,0,.2,0,.2,0,.3,.1,.5,.2,.2,0,.4,.2,.6,.3,2.2,1.2,3.7,3.7,4,7.2,0,.5,0,1.1,0,1.7Z"/></g><path class="jb" d="M312.6,185c0,6.1-4.2,13.4-9.5,16.5-3.1,1.8-5.9,1.7-7.7,0,1.5,.2,3.2-.2,5-1.3,5.3-3,9.5-10.4,9.5-16.5,0-2.4-.7-4.3-1.9-5.4,2.7,.4,4.5,2.8,4.5,6.7Z"/><path class="mt" d="M309.9,183.7c0,6.1-4.2,13.4-9.5,16.5-1.8,1.1-3.6,1.5-5,1.3-1.2-1.1-1.9-3-1.9-5.4,0-6.1,4.2-13.4,9.5-16.5,1.8-1.1,3.6-1.5,5-1.3,1.2,1.1,1.9,3,1.9,5.4Z"/><g><path class="np" d="M306.6,185.6h0s0,0-.1,0c0,0,0,0,0,0,0,0,0,0,0,0,0,0,0,0,0,0h0s0,0,0,0c0,0,0,0,0,0h0c0,0-.1,0-.2,0,0,0,0,0,0,0,0,0-.1,0-.2,0,0,0,0,0-.1,0,0,0,0,0-.1,0,0,0,0,0,0,0,0,0,0,0-.1,0,0,0,0,0,0,0h0s0,0,0,0h0s0,0,0,0c0,0,0,0,0,0,0,0,0,0,0,0,0,0,0,0,0,0,0,0,0,0-.1,0,0,0,0,0,0,0s0,0,0,0h0c0,0,0,0-.1,.1,0,0-.1,0-.2,.1,0,0-.1,0-.2,.1,0,0,0,0-.1,0,0,0-.2,.1-.2,.2,0,0,0,0-.1,.1,0,0-.1,.1-.2,.2,0,0,0,0-.1,.1,0,0-.1,.1-.2,.2,0,0-.2,.2-.2,.3,0,0,0,.1-.1,.2,0,0,0,.1-.1,.2,0,0-.1,.1-.2,.2,0,0,0,0,0,.1,0,0-.1,.2-.2,.3,0,0,0,0,0,.1,0,0,0,.1-.1,.2,0,0,0,.1-.1,.2,0,0,0,0,0,0,0,.1-.1,.2-.2,.3,0,0,0,0,0,.1,0,.1-.1,.2-.2,.3,0,0,0,0,0,0,0,0,0,.1,0,.2,0,0,0,.1,0,.2,0,0,0,0,0,.1,0,0,0,.2,0,.3,0,0,0,0,0,.1,0,0,0,.2,0,.3,0,0,0,.1,0,.2,0,0,0,.1,0,.2h0c0,0,0,.1,0,.2,0,0,0,0,0,0,0,.1,0,.2,0,.3,0,0,0,0,0,.1h0c0,.2,0,.2,0,.3,0,0,0,0,0,.1s0,0,0,.1h0v.2c0,0,0,.1,0,.1,0,0,0,0,0,.1,0,0,0,0,0,.1,0,0,0,0,0,0,0,0,0,0,0,.1,0,0,0,0,0,.1h0s0,0,0,.1c0,0,0,0,0,0,0,0,0,0,0,0h0s0,0,0,0c0,0,0,.2,.1,.3,0,0,0,0,0,0h0s0,0,0,.1c0,0,0,0,0,0h0s0,0,0,0c0,0,0,0,0,0,0,0,.1,.1,.2,.2h0c0,0,0,0,0,0,0,0,0,0,.1,0,0,0,0,0,0,0,0,0,0,0,0,0l-2-1.2c-.2,0-.3-.2-.4-.4-.4-.4-.6-1.1-.6-1.9,0-.1,0-.3,0-.4,0,0,0,0,0-.1,0,0,0-.1,0-.2,0,0,0,0,0,0,0,0,0-.2,0-.3,0,0,0,0,0-.1,0,0,0,0,0,0,0,0,0-.1,0-.2,0,0,0-.1,0-.2,0,0,0,0,0,0,0,0,0,0,0-.1,0,0,0,0,0-.1,0,0,0-.1,0-.2,0,0,0,0,0-.1,0,0,0,0,0,0,0-.1,0-.2,.1-.3h0c0-.1,0-.2,.1-.3,0,0,0,0,0,0h0c0-.1,0-.2,0-.2,0,0,0-.1,.1-.2h0c0-.2,.1-.3,.2-.4,0,0,0,0,0,0,0,0,0,0,0-.1,0,0,0-.1,.1-.2,0,0,0,0,0,0,0,0,0,0,0-.1,0,0,0,0,0,0,0,0,0,0,0-.1,0,0,0-.1,.1-.2,0,0,0,0,0,0,0,0,0,0,0,0,0,0,.2-.2,.2-.3,0,0,0,0,0,0,0,0,0,0,0,0,0,0,0,0,.1-.1,0,0,.1-.1,.2-.2,0,0,0,0,.1-.1,0,0,.1-.1,.2-.2,0,0,0,0,.1,0,.1,0,.2-.1,.3-.2,0,0,.2,0,.2-.1,0,0,0,0,0,0,0,0,.1,0,.2,0,0,0,0,0,0,0h0c0,0,.1,0,.2,0h0c0,0,.1,0,.2,0h0c0,0,.2,0,.3,0h0c0,0,.2,0,.2,0,0,0,0,0,0,0,0,0,0,0,0,0,0,0,.1,0,.2,0h0s0,0,0,0c0,0,.1,0,.2,0,0,0,0,0,0,0h0c0,0,.1,0,.2,0h0c0,0,.1,0,.2,0h0s0,0,0,0c0,0,0,0,0,0h0l2.1,1.3Z"/><path class="km" d="M307.6,187.9c0,2.3-1.6,5-3.5,6.1-1,.6-1.9,.6-2.5,.2,0,0,0,0,0,0,0,0,0,0,0,0,0,0,0,0-.1,0,0,0,0,0,0,0,0,0,0,0,0,0,0,0-.1-.1-.2-.2,0,0,0,0,0,0,0,0,0,0,0,0h0s0,0,0,0c0,0,0,0,0,0h0s0,0,0,0c0,0,0-.2-.1-.3,0,0,0,0,0,0h0s0,0,0,0c0,0,0,0,0,0,0,0,0,0,0-.1h0s0,0,0-.1c0,0,0,0,0-.1,0,0,0,0,0,0,0,0,0,0,0-.1,0,0,0,0,0-.1,0,0,0,0,0-.1h0v-.2s0,0,0-.1,0,0,0-.1c0,0,0-.1,0-.2,0-.2,0-.5,0-.8h0c0-.4,.2-.8,.3-1.2,0,0,0-.1,0-.2,0,0,0-.1,0-.2,.1-.3,.3-.6,.4-.9,0,0,0-.1,.1-.2,.6-1,1.4-1.8,2.2-2.4,0,0,.1,0,.2-.1,0,0,0,0,.1,0,0,0,.2,0,.2-.1h.1c0,0,0,0,0,0,0,0,0,0,0,0,0,0,0,0,0,0,0,0,0,0,0,0h0s0,0,0,0c0,0,0,0,0,0,0,0,0,0,.1,0,0,0,0,0,0,0,0,0,.1,0,.1,0,0,0,0,0,0,0h0c0,0,.1,0,.2,0,0,0,0,0,0,0,0,0,.1,0,.2,0h0s0,0,0,0c0,0,0,0,0,0h0s0,0,0,0c0,0,0,0,0,0,0,0,0,0,.1,0,0,0,.1,0,.2,0,.6,.3,.9,1,1,1.9,0,.1,0,.3,0,.4Z"/></g></g><polygon class="nv" points="121.8 197.2 168.9 221.9 151.5 247 139.4 240.6 100.4 220.1 121.8 197.2"/><path class="ht" d="M307.2,120.5h0c-1,0-2.1,.2-3.1,.7l-27.6,15.4-94.6,52.7-44.8-22.7,122.2-68.1c1.6-.9,3.5-.9,5-.2h0l.4,.2h0l42.3,21.9Z"/><path class="ml" d="M323.7,146.7v33.7l-5.1,2.9c0-.4,0-.8,0-1.2,0-.1,0-.3,0-.4v-.3c0-.6,0-1.3,0-1.9-.4-4-2.1-6.8-4.5-8.2-.2-.1-.4-.2-.7-.3-.2,0-.4-.2-.5-.2,0,0-.2,0-.3,0,0,0-.2,0-.3,0,0,0,0,0,0,0-.1,0-.2,0-.3,0,0,0-.2,0-.3,0,0,0,0,0,0,0-.3,0-.5,0-.8-.1,0,0-.1,0-.2,0-.3,0-.6,0-.9,0,0,0-.1,0-.2,0-.1,0-.3,0-.4,0-.2,0-.4,0-.7,0-.1,0-.2,0-.4,0-.2,0-.4,0-.6,.1-.1,0-.3,0-.4,0-.1,0-.3,0-.4,.1h0c0,0-.1,0-.2,0,0,0-.2,0-.3,0,0,0-.1,0-.2,0-.1,0-.2,0-.3,.1-.1,0-.2,0-.3,.1,0,0-.2,0-.3,.1-.1,0-.2,.1-.4,.2-.4,.2-.7,.3-1.1,.5-.2,.1-.4,.2-.6,.3-.3,.1-.5,.3-.7,.5-3.8,2.4-7.2,6.1-9.8,10.3-.2,.3-.3,.6-.5,.8-.7,1.2-1.4,2.5-1.9,3.8-.1,.3-.2,.6-.4,.9-.1,.3-.2,.6-.3,.9-.6,1.7-1.1,3.4-1.4,5.1,0,0,0,.1,0,.2-.2,1.1-.3,2.2-.4,3.3,0,.2,0,.5,0,.7,0,0,0,.2,0,.3,0,0,0,.2,0,.3s0,.1,0,.2c0,.1,0,.2,0,.3,0,.1,0,.2,0,.3,0,0,0,.1,0,.2,0,.1,0,.2,0,.3l-83.8,47v-.3c0-.6,0-1.3,0-1.9-.4-4-2.1-6.8-4.5-8.2-.2-.1-.4-.2-.7-.3-.2,0-.4-.2-.5-.2,0,0-.2,0-.3,0,0,0-.2,0-.3,0,0,0,0,0,0,0-.1,0-.2,0-.3,0,0,0-.2,0-.3,0,0,0,0,0,0,0-.3,0-.5,0-.8-.1,0,0-.1,0-.2,0-.3,0-.6,0-.9,0,0,0-.1,0-.2,0-.1,0-.3,0-.4,0-.2,0-.4,0-.7,0-.1,0-.2,0-.4,0-.2,0-.4,0-.6,.1-.1,0-.3,0-.4,0-.1,0-.3,0-.4,.1h0c0,0-.1,0-.2,0,0,0-.2,0-.3,0,0,0-.1,0-.2,0-.1,0-.2,0-.3,.1-.1,0-.2,0-.3,.1,0,0-.2,0-.3,.1-.1,0-.2,.1-.4,.2-.4,.2-.7,.3-1.1,.5-.2,.1-.4,.2-.6,.3-.3,.1-.5,.3-.7,.5-3.8,2.4-7.2,6.1-9.8,10.3-.2,.3-.3,.6-.5,.8-.7,1.2-1.4,2.5-1.9,3.8-.1,.3-.2,.6-.4,.9-.1,.3-.2,.6-.3,.9-.6,1.7-1.1,3.4-1.4,5.1,0,0,0,.1,0,.2-.2,1.1-.3,2.2-.4,3.3,0,.2,0,.5,0,.7,0,0,0,.2,0,.3,0,0,0,.2,0,.3s0,.1,0,.2l-20.9,11.7v-30.4l7-10.1,.5-.7,9.9-14.3,2.3-6.7,7.8-22.6c.5-1.4,1.5-2.6,2.7-3.3l94.6-52.7,27.6-15.4c1-.5,2-.8,3.1-.7,1.9,.1,3.7,1.2,4.6,3l11.8,22.9,.2,.3Z"/><path class="hc" d="M181.9,189.3c-1.3,.7-2.3,1.9-2.7,3.3l-7.8,22.6-2.3,6.7-47.2-24.7,12.6-27.3c.5-1.4,1.5-2.6,2.7-3.3l44.8,22.7Z"/><path class="ip" d="M323.7,146.3v34.2l-5.1,2.9c0-.4,0-.8,0-1.2,0-.1,0-.3,0-.4v-.3c0-.6,0-1.3,0-1.9-.4-4-2.1-6.8-4.5-8.2-.2-.1-.4-.2-.7-.3-.2,0-.4-.2-.5-.2,0,0-.2,0-.3,0,0,0-.2,0-.3,0,0,0,0,0,0,0-.1,0-.2,0-.3,0,0,0-.2,0-.3,0,0,0,0,0,0,0-.3,0-.5,0-.8-.1,0,0-.1,0-.2,0-.3,0-.6,0-.9,0,0,0-.1,0-.2,0-.1,0-.3,0-.4,0-.2,0-.4,0-.7,0-.1,0-.2,0-.4,0-.2,0-.4,0-.6,.1-.1,0-.3,0-.4,0-.1,0-.3,0-.4,.1h0c0,0-.1,0-.2,0,0,0-.2,0-.3,0,0,0-.1,0-.2,0-.1,0-.2,0-.3,.1-.1,0-.2,0-.3,.1,0,0-.2,0-.3,.1-.1,0-.2,.1-.4,.2-.4,.2-.7,.3-1.1,.5-.2,.1-.4,.2-.6,.3-.3,.1-.5,.3-.7,.5-3.8,2.4-7.2,6.1-9.8,10.3-.2,.3-.3,.6-.5,.8-.7,1.2-1.4,2.5-1.9,3.8-.1,.3-.2,.6-.4,.9-.1,.3-.2,.6-.3,.9-.6,1.7-1.1,3.4-1.4,5.1,0,0,0,.1,0,.2-.2,1.1-.3,2.2-.4,3.3,0,.2,0,.5,0,.7,0,0,0,.2,0,.3,0,0,0,.2,0,.3s0,.1,0,.2c0,.1,0,.2,0,.3,0,.1,0,.2,0,.3,0,0,0,.1,0,.2,0,.1,0,.2,0,.3l-83.8,47v-.3c0-.6,0-1.3,0-1.9-.4-4-2.1-6.8-4.5-8.2-.2-.1-.4-.2-.7-.3-.2,0-.4-.2-.5-.2,0,0-.2,0-.3,0,0,0-.2,0-.3,0,0,0,0,0,0,0-.1,0-.2,0-.3,0,0,0-.2,0-.3,0,0,0,0,0,0,0-.3,0-.5,0-.8-.1,0,0-.1,0-.2,0-.3,0-.6,0-.9,0,0,0-.1,0-.2,0-.1,0-.3,0-.4,0-.2,0-.4,0-.7,0-.1,0-.2,0-.4,0-.2,0-.4,0-.6,.1-.1,0-.3,0-.4,0-.1,0-.3,0-.4,.1h0c0,0-.1,0-.2,0,0,0-.2,0-.3,0,0,0-.1,0-.2,0-.1,0-.2,0-.3,.1-.1,0-.2,0-.3,.1,0,0-.2,0-.3,.1-.1,0-.2,.1-.4,.2-.4,.2-.7,.3-1.1,.5-.2,.1-.4,.2-.6,.3-.3,.1-.5,.3-.7,.5-3.8,2.4-7.2,6.1-9.8,10.3-.2,.3-.3,.6-.5,.8-.7,1.2-1.4,2.5-1.9,3.8-.1,.3-.2,.6-.4,.9-.1,.3-.2,.6-.3,.9-.6,1.7-1.1,3.4-1.4,5.1,0,0,0,.1,0,.2-.2,1.1-.3,2.2-.4,3.3,0,.2,0,.5,0,.7,0,0,0,.2,0,.3l-20.9,11.7v-30.4l7-10.1,.5-.3,164.5-89.8h.2Z"/><g><polygon class="iu" points="151.5 247 151.5 277.4 100.4 250.5 100.4 220.1 139.4 240.6 151.5 247"/><g><path class="hj" d="M147.2,251.6v8.9c0,.1,0,.1-.1,.1s0,0,0,0l-5.3-2.9c-.4-.2-.7-.6-.7-1.1v-8.8c0-.2,.1-.2,.2-.2s0,0,.1,0l5.2,2.8c.4,.2,.7,.7,.7,1.2Z"/><path class="nf" d="M147.2,256.7v3.8c0,.1,0,.1-.1,.1s0,0,0,0l-5.3-2.9c-.4-.2-.7-.6-.7-1.1v-3.4l6.2,3.5Z"/></g><g><path class="hj" d="M109.5,232.1v8.9c0,.1,0,.1-.1,.1s0,0,0,0l-5.3-2.9c-.4-.2-.7-.6-.7-1.1v-8.8c0-.2,.1-.2,.2-.2s0,0,.1,0l5.2,2.8c.4,.2,.7,.7,.7,1.2Z"/><path class="mg" d="M109.5,237.2v3.8c0,.1,0,.1-.1,.1s0,0,0,0l-5.3-2.9c-.4-.2-.7-.6-.7-1.1v-3.4l6.2,3.5Z"/></g><g><path class="i`" d="M138.4,256.6s0,0,0,0l-25.7-13.6c-.4-.2-.7-.6-.7-1.1v-8.8c0-.2,.1-.2,.2-.2s0,0,.1,0l25.6,13.5c.4,.2,.7,.7,.7,1.2v8.9c0,.1,0,.1-.1,.1Z"/><g><polygon class="ix" points="112.7 234.7 137.8 248 137.8 249.6 112.7 236.3 112.7 234.7"/><polygon class="mk" points="112.7 237.3 137.8 250.6 137.8 252.2 112.7 238.9 112.7 237.3"/><polygon class="kt" points="112.7 239.9 137.8 253.2 137.8 254.9 112.7 241.6 112.7 239.9"/></g></g><g><path class="mv" d="M151.6,268.6l-55.6-27.8v10.2h0c0,.4,.3,.7,.7,.9l53.7,27.3c.7,.4,1.6,.3,2.3,0l6.3-3.8v-10.1l-7.3,3.4Z"/><path class="ks" d="M100.4,241.2l51.4,26.2,5.3-3.3,1.8,1-6.3,3.8c-.7,.4-1.5,.4-2.3,0l-53.7-27.3c-.9-.5-1-1.7-.1-2.2l3.8-2.8v4.5Z"/></g></g><path class="kf" d="M183,194.1l-9.2,27.2c-.5,1.4,1,2.6,2.3,1.9l34.3-19c1.5-.8,2.1-2.6,1.5-4.2l-6.6-16.2c-.6-1.5-2.4-2.2-3.9-1.4l-15.8,8.7c-1.2,.7-2.1,1.7-2.6,3Z"/><path class="mm" d="M316.6,145.7l-98.1,53.6c-.8,.4-1.7,.3-2.3-.3,.2,0,.4-.1,.6-.2l98.1-53.6c.8-.4,1.1-1.5,.7-2.3l-9.3-17.7c-.2-.3-.4-.6-.7-.8,.9,0,1.9,.4,2.4,1.3l9.3,17.7c.4,.8,.1,1.8-.7,2.3Z"/><path class="il" d="M314.9,145.2l-98.1,53.6c-.2,.1-.4,.2-.6,.2-.2-.2-.4-.4-.5-.7l-7.2-16.9c-.6-1.4,0-3,1.3-3.7l95-52.9c.3-.2,.6-.3,.9-.3,.3,.2,.5,.5,.7,.8l9.3,17.7c.4,.8,.1,1.8-.7,2.3Z"/><path class="mm" d="M192.2,149.5l19,9.8c2.4,1.2,2.4,4.6,0,5.8l-30.1,15.3c-1.7,.9-3.8,.8-5.5-.1l-19.1-10.7c-1.9-1.1-1.9-3.8,0-4.9l29.5-15.2c1.9-1,4.2-1,6.2,0Z"/><polygon class="nx" points="203.7 247.5 287.5 200.8 287.5 207.3 203.7 253 203.7 247.5"/></g></g><g><g class="mh"><path class="je" d="M262.9,429.7l-99.7-59.3c-5.1-3-5-10.4,.1-13.3l208.2-119.5,118.7,70.6-211.8,121.6c-4.8,2.8-10.7,2.7-15.5-.1Z"/></g><g><polygon class="hq" points="307.9 369.5 468.7 276.6 468.7 254.1 295.9 348.3 307.9 369.5"/><g class="is"><polygon class="io" points="326.2 373.4 309.9 363.7 309.9 340.7 326.2 350.4 326.2 373.4"/><polygon class="lp" points="326.2 350.4 309.9 340.7 349.3 317.9 365.7 327.6 326.2 350.4"/><polygon class="j`" points="365.7 327.6 365.7 350.6 326.2 373.4 326.2 350.4 365.7 327.6"/></g><path class="mj" d="M445.6,267.6c.4,.2,.7,.4,1.1,.7l-1.1-.7Z"/><g><path class="kx" d="M462.9,286l-11-7.6-1-2.1,1.3-.8c1.4-.9,3.2-.9,4.5-.2h0c.9,.5,1.6,1.2,2.1,2.1l4.1,8.7Z"/><g><g><g><path class="iw" d="M426.8,302.1c0-.4,0-.8,.1-1.2,0,0,0-.2,0-.2,0-.5,.2-.9,.3-1.4,0-.2,.1-.5,.2-.7,0-.3,.2-.7,.3-1,0-.2,.1-.4,.2-.6,.1-.4,.2-.7,.4-1.1,0-.2,.1-.3,.2-.5,.2-.5,.4-1,.6-1.5,0,0,0-.1,0-.2,.2-.4,.4-.9,.6-1.3,0-.1,.1-.3,.2-.4,.2-.4,.4-.8,.7-1.2,0,0,0-.2,.1-.2,.3-.5,.6-.9,.9-1.4,0-.1,.2-.3,.3-.4,.2-.3,.4-.7,.7-1,.1-.2,.3-.3,.4-.5,.2-.3,.4-.5,.6-.8,.2-.2,.4-.4,.5-.7,.2-.2,.3-.4,.5-.6,.3-.3,.6-.7,.9-1,.2-.2,.4-.4,.6-.6,.2-.1,.3-.3,.5-.4,.3-.2,.5-.5,.8-.7,.2-.1,.3-.3,.5-.4,.3-.2,.6-.4,.9-.7,.1,0,.3-.2,.4-.3,.4-.3,.9-.6,1.3-.8,.3-.2,.6-.3,.9-.5,0,0,.2,0,.2-.1,.2-.1,.4-.2,.7-.3,0,0,.2,0,.2,0,.2,0,.4-.2,.6-.2,0,0,.1,0,.2,0,.2,0,.5-.2,.7-.2,0,0,0,0,.1,0,.4-.1,.8-.2,1.1-.2h0c.3,0,.6,0,.9,0,0,0,.1,0,.2,0,.3,0,.5,0,.8,0,0,0,0,0,.1,0,.2,0,.4,0,.6,0,0,0,.1,0,.2,0,.2,0,.5,0,.7,.2h0c.2,0,.4,.1,.6,.2,0,0,.1,0,.2,0,.2,0,.3,.2,.5,.2,0,0,.1,0,.2,0l-8-4.7h0c0,0,0,0,0,0-.2,0-.3-.2-.5-.2,0,0,0,0,0,0,0,0,0,0,0,0-.2,0-.4-.2-.6-.2h0c-.2,0-.5-.1-.7-.2,0,0,0,0,0,0,0,0,0,0-.1,0-.2,0-.4,0-.6,0,0,0,0,0,0,0,0,0,0,0,0,0-.3,0-.5,0-.8,0,0,0,0,0,0,0,0,0,0,0-.1,0-.3,0-.6,0-.9,0h0c-.4,0-.8,.1-1.1,.2,0,0,0,0,0,0h0c-.2,0-.5,.2-.7,.2,0,0,0,0-.1,0-.2,0-.4,.1-.6,.2,0,0,0,0,0,0,0,0-.1,0-.1,0-.2,0-.4,.2-.7,.3,0,0-.2,0-.2,.1-.3,.1-.6,.3-.9,.5-.4,.3-.9,.5-1.3,.8-.1,0-.3,.2-.4,.3-.3,.2-.6,.4-.9,.6-.2,.1-.3,.3-.5,.4-.3,.2-.5,.4-.8,.7-.2,.1-.3,.3-.5,.4,0,0-.2,.2-.3,.3-.1,0-.2,.2-.3,.3-.3,.3-.6,.6-.9,1,0,.1-.2,.2-.3,.3,0,0-.2,.2-.2,.3-.2,.2-.4,.4-.5,.7-.1,.1-.2,.3-.4,.4,0,.1-.2,.2-.3,.4-.1,.2-.3,.3-.4,.5,0,.1-.2,.2-.3,.4-.1,.2-.3,.4-.4,.6,0,.1-.2,.3-.3,.4,0,0,0,.1-.1,.2-.2,.4-.5,.8-.7,1.2,0,0,0,0,0,0,0,0,0,.2-.1,.2-.2,.3-.3,.6-.5,.8,0,.1-.1,.3-.2,.4,0,.1-.1,.3-.2,.4,0,.1-.1,.2-.2,.4-.2,.3-.3,.6-.4,1,0,0,0,.1,0,.2,0,0,0,0,0,0-.2,.4-.3,.8-.5,1.2,0,0,0,.2,0,.2,0,.1-.1,.3-.2,.4,0,.2-.2,.4-.2,.6,0,.2,0,.3-.1,.5,0,.2-.1,.4-.2,.6,0,.1,0,.2-.1,.4,0,.2-.1,.4-.2,.6,0,.2-.1,.5-.2,.7,0,0,0,.2,0,.2,0,.2,0,.3,0,.5,0,.4-.1,.7-.2,1.1,0,.1,0,.2,0,.3,0,.2,0,.5,0,.7,0,.2,0,.3,0,.5,0,.5,0,1,0,1.5,0,3.2,.9,5.8,2.3,7.4,.5,.6,1,1,1.7,1.4l8,4.7c-2.5-1.4-4-4.5-4-8.8,0-.5,0-1,0-1.5,0-.2,0-.3,0-.5Z"/><path class="jj" d="M440.4,280.4c7.6-4.4,13.7-.9,13.8,7.8s-6.1,19.3-13.7,23.7c-7.6,4.4-13.7,.9-13.8-7.8,0-8.7,6.1-19.3,13.7-23.7Z"/></g><path class="nu" d="M449.9,290.7c0,6-4.2,13.3-9.4,16.4-3.1,1.8-5.9,1.7-7.6,0,1.5,.2,3.2-.2,5-1.2,5.2-3,9.5-10.3,9.4-16.4,0-2.4-.7-4.2-1.9-5.4,2.7,.4,4.5,2.8,4.5,6.7Z"/><path class="oa" d="M447.3,289.5c0,6-4.2,13.3-9.4,16.4-1.8,1.1-3.5,1.4-5,1.2-1.2-1.1-1.9-3-1.9-5.4,0-6,4.2-13.3,9.4-16.3,1.8-1.1,3.6-1.4,5-1.2,1.2,1.1,1.8,3,1.9,5.4Z"/></g><g><path class="it" d="M437.2,297.1c0,0,0-.2,0-.3h0c0-.2,0-.3,0-.4,0,0,0-.1,0-.2,0,0,0-.2,0-.2,0,0,0,0,0-.1,0,0,0-.2,0-.3,0,0,0,0,0-.1,0-.1,0-.2,.1-.4h0c0-.2,0-.3,.2-.4,0,0,0,0,0-.1,0-.1,.1-.2,.2-.3,0,0,0,0,0,0,0-.1,.1-.2,.2-.3,0,0,0,0,0,0,0,0,.1-.2,.2-.2,0,0,0,0,0-.1,0,0,0-.1,.2-.2,0,0,0-.1,.1-.2,0,0,0,0,.1-.1,0,0,.1-.2,.2-.2,0,0,0,0,.1-.1,0,0,0,0,.1-.1,0,0,.1-.1,.2-.2,0,0,0,0,.1,0,0,0,.1-.1,.2-.2,0,0,0,0,.1,0,.1,0,.2-.1,.3-.2,0,0,.1,0,.2-.1h0c0,0,.1,0,.2-.1,0,0,0,0,0,0,0,0,0,0,.1,0h0c0,0,.1,0,.2,0h0c0,0,.2,0,.3,0h0c0,0,.2,0,.2,0h0c0,0,.1,0,.2,0h0c0,0,.1,0,.2,0h0c0,0,.1,0,.2,0h0c0,0,.1,0,.2,0h0s0,0,.1,0c0,0,0,0,0,0l-2-1.1h0s0,0-.1,0h0s0,0-.2,0h0c0,0-.1,0-.2,0h0s0,0-.2,0h0c0,0-.1,0-.2,0,0,0,0,0,0,0h0c0,0-.1,0-.2,0h0c0,0-.2,0-.3,0h0c0,0-.1,0-.2,0h0s0,0-.1,0h0c0,0-.1,0-.2,0h0c0,0-.1,.1-.2,.1-.1,0-.2,.1-.3,.2,0,0,0,0-.1,0,0,0-.1,.1-.2,.2,0,0,0,0-.1,0,0,0-.1,.1-.2,.2,0,0,0,0-.1,.1,0,0,0,0,0,0,0,0,0,0,0,0,0,0-.1,.2-.2,.2,0,0,0,0,0,0,0,0,0,0,0,0,0,0,0,.1-.1,.2,0,0,0,0,0,.1,0,0,0,0,0,0,0,0,0,0,0,.1,0,0,0,0,0,0,0,0,0,.1-.1,.2,0,0,0,0,0,0h0c0,.1-.1,.2-.2,.3h0s0,0,0,0c0,0,0,.1-.1,.2,0,0,0,0,0,0,0,0,0,0,0,0,0,0,0,0,0,0,0,0,0,.2-.1,.2h0c0,.2,0,.3-.1,.4,0,0,0,0,0,0,0,0,0,0,0,.1,0,0,0,.1,0,.2,0,0,0,0,0,.1,0,0,0,0,0,.1,0,0,0,0,0,0,0,0,0,.1,0,.2,0,0,0,.1,0,.2,0,0,0,0,0,0,0,0,0,0,0,.1,0,0,0,.2,0,.3,0,0,0,0,0,0,0,0,0,.1,0,.2,0,0,0,0,0,.1,0,.1,0,.2,0,.4,0,.8,.2,1.4,.6,1.8,.1,.1,.3,.2,.4,.3l2,1.1c-.6-.3-1-1.1-1-2.1,0-.1,0-.2,0-.4,0,0,0,0,0-.1Z"/><path class="jr" d="M440.5,291.9c1.8-1.1,3.3-.2,3.4,1.9,0,2.1-1.5,4.7-3.3,5.8-1.8,1.1-3.3,.2-3.4-1.9,0-2.1,1.5-4.7,3.3-5.8Z"/></g></g><g><g><g><path class="kq" d="M398.6,322.1c0-.4,0-.8,.1-1.2,0,0,0-.2,0-.2,0-.5,.2-.9,.3-1.4,0-.2,.1-.5,.2-.7,0-.3,.2-.7,.3-1,0-.2,.1-.4,.2-.6,.1-.4,.2-.7,.4-1.1,0-.2,.1-.3,.2-.5,.2-.5,.4-1,.6-1.5,0,0,0-.1,0-.2,.2-.4,.4-.9,.6-1.3,0-.1,.1-.3,.2-.4,.2-.4,.4-.8,.7-1.2,0,0,0-.2,.1-.2,.3-.5,.6-.9,.9-1.4,0-.1,.2-.3,.3-.4,.2-.3,.4-.7,.7-1,.1-.2,.3-.3,.4-.5,.2-.3,.4-.5,.6-.8,.2-.2,.4-.4,.5-.7,.2-.2,.3-.4,.5-.6,.3-.3,.6-.7,.9-1,.2-.2,.4-.4,.6-.6,.2-.1,.3-.3,.5-.4,.3-.2,.5-.5,.8-.7,.2-.1,.3-.3,.5-.4,.3-.2,.6-.4,.9-.7,.1,0,.3-.2,.4-.3,.4-.3,.9-.6,1.3-.8,.3-.2,.6-.3,.9-.5,0,0,.2,0,.2-.1,.2-.1,.4-.2,.7-.3,0,0,.2,0,.2,0,.2,0,.4-.2,.6-.2,0,0,.1,0,.2,0,.2,0,.5-.2,.7-.2,0,0,0,0,.1,0,.4-.1,.8-.2,1.1-.2h0c.3,0,.6,0,.9,0,0,0,.1,0,.2,0,.3,0,.5,0,.8,0,0,0,0,0,.1,0,.2,0,.4,0,.6,0,0,0,.1,0,.2,0,.2,0,.5,0,.7,.2h0c.2,0,.4,.1,.6,.2,0,0,.1,0,.2,0,.2,0,.3,.2,.5,.2,0,0,.1,0,.2,0l-8-4.7h0c0,0,0,0,0,0-.2,0-.3-.2-.5-.2,0,0,0,0,0,0,0,0,0,0,0,0-.2,0-.4-.2-.6-.2h0c-.2,0-.5-.1-.7-.2,0,0,0,0,0,0,0,0,0,0-.1,0-.2,0-.4,0-.6,0,0,0,0,0,0,0,0,0,0,0,0,0-.3,0-.5,0-.8,0,0,0,0,0,0,0,0,0,0,0-.1,0-.3,0-.6,0-.9,0h0c-.4,0-.8,.1-1.1,.2,0,0,0,0,0,0h0c-.2,0-.5,.2-.7,.2,0,0,0,0-.1,0-.2,0-.4,.1-.6,.2,0,0,0,0,0,0,0,0-.1,0-.1,0-.2,0-.4,.2-.7,.3,0,0-.2,0-.2,.1-.3,.1-.6,.3-.9,.5-.4,.3-.9,.5-1.3,.8-.1,0-.3,.2-.4,.3-.3,.2-.6,.4-.9,.6-.2,.1-.3,.3-.5,.4-.3,.2-.5,.4-.8,.7-.2,.1-.3,.3-.5,.4,0,0-.2,.2-.3,.3-.1,0-.2,.2-.3,.3-.3,.3-.6,.6-.9,1,0,.1-.2,.2-.3,.3,0,0-.2,.2-.2,.3-.2,.2-.4,.4-.5,.7-.1,.1-.2,.3-.4,.4,0,.1-.2,.2-.3,.4-.1,.2-.3,.3-.4,.5,0,.1-.2,.2-.3,.4-.1,.2-.3,.4-.4,.6,0,.1-.2,.3-.3,.4,0,0,0,.1-.1,.2-.2,.4-.5,.8-.7,1.2,0,0,0,0,0,0,0,0,0,.2-.1,.2-.2,.3-.3,.6-.5,.8,0,.1-.1,.3-.2,.4,0,.1-.1,.3-.2,.4,0,.1-.1,.2-.2,.4-.2,.3-.3,.6-.4,1,0,0,0,.1,0,.2,0,0,0,0,0,0-.2,.4-.3,.8-.5,1.2,0,0,0,.2,0,.2,0,.1-.1,.3-.2,.4,0,.2-.2,.4-.2,.6,0,.2,0,.3-.1,.5,0,.2-.1,.4-.2,.6,0,.1,0,.2-.1,.4,0,.2-.1,.4-.2,.6,0,.2-.1,.5-.2,.7,0,0,0,.2,0,.2,0,.2,0,.3,0,.5,0,.4-.1,.7-.2,1.1,0,.1,0,.2,0,.3,0,.2,0,.5,0,.7,0,.2,0,.3,0,.5,0,.5,0,1,0,1.5,0,3.2,.9,5.8,2.3,7.4,.5,.6,1,1,1.7,1.4l8,4.7c-2.5-1.4-4-4.5-4-8.8,0-.5,0-1,0-1.5,0-.2,0-.3,0-.5Z"/><path class="lm" d="M412.1,300.4c7.6-4.4,13.7-.9,13.8,7.8,0,8.7-6.1,19.3-13.7,23.7s-13.7,.9-13.8-7.8c0-8.7,6.1-19.3,13.7-23.7Z"/></g><path class="k`" d="M421.7,310.7c0,6-4.2,13.3-9.4,16.4-3.1,1.8-5.9,1.7-7.6,0,1.5,.2,3.2-.2,5-1.2,5.2-3,9.5-10.3,9.4-16.4,0-2.4-.7-4.2-1.9-5.4,2.7,.4,4.5,2.8,4.5,6.7Z"/><path class="hb" d="M419,309.5c0,6-4.2,13.3-9.4,16.4-1.8,1.1-3.5,1.4-5,1.2-1.2-1.1-1.9-3-1.9-5.4,0-6,4.2-13.3,9.4-16.3,1.8-1.1,3.6-1.4,5-1.2,1.2,1.1,1.8,3,1.9,5.4Z"/></g><g><path class="ky" d="M409,317.1c0,0,0-.2,0-.3h0c0-.2,0-.3,0-.4,0,0,0-.1,0-.2,0,0,0-.2,0-.2,0,0,0,0,0-.1,0,0,0-.2,0-.3,0,0,0,0,0-.1,0-.1,0-.2,.1-.4h0c0-.2,0-.3,.2-.4,0,0,0,0,0-.1,0-.1,.1-.2,.2-.3,0,0,0,0,0,0,0-.1,.1-.2,.2-.3,0,0,0,0,0,0,0,0,.1-.2,.2-.2,0,0,0,0,0-.1,0,0,0-.1,.2-.2,0,0,0-.1,.1-.2,0,0,0,0,.1-.1,0,0,.1-.2,.2-.2,0,0,0,0,.1-.1,0,0,0,0,.1-.1,0,0,.1-.1,.2-.2,0,0,0,0,.1,0,0,0,.1-.1,.2-.2,0,0,0,0,.1,0,.1,0,.2-.1,.3-.2,0,0,.1,0,.2-.1h0c0,0,.1,0,.2-.1,0,0,0,0,0,0,0,0,0,0,.1,0h0c0,0,.1,0,.2,0h0c0,0,.2,0,.3,0h0c0,0,.2,0,.2,0h0c0,0,.1,0,.2,0h0c0,0,.1,0,.2,0h0c0,0,.1,0,.2,0h0c0,0,.1,0,.2,0h0s0,0,.1,0c0,0,0,0,0,0l-2-1.1h0s0,0-.1,0h0s0,0-.2,0h0c0,0-.1,0-.2,0h0s0,0-.2,0h0c0,0-.1,0-.2,0,0,0,0,0,0,0h0c0,0-.1,0-.2,0h0c0,0-.2,0-.3,0h0c0,0-.1,0-.2,0h0s0,0-.1,0h0c0,0-.1,0-.2,0h0c0,0-.1,.1-.2,.1-.1,0-.2,.1-.3,.2,0,0,0,0-.1,0,0,0-.1,.1-.2,.2,0,0,0,0-.1,0,0,0-.1,.1-.2,.2,0,0,0,0-.1,.1,0,0,0,0,0,0,0,0,0,0,0,0,0,0-.1,.2-.2,.2,0,0,0,0,0,0,0,0,0,0,0,0,0,0,0,.1-.1,.2,0,0,0,0,0,.1,0,0,0,0,0,0,0,0,0,0,0,.1,0,0,0,0,0,0,0,0,0,.1-.1,.2,0,0,0,0,0,0h0c0,.1-.1,.2-.2,.3h0s0,0,0,0c0,0,0,.1-.1,.2,0,0,0,0,0,0,0,0,0,0,0,0,0,0,0,0,0,0,0,0,0,.2-.1,.2h0c0,.2,0,.3-.1,.4,0,0,0,0,0,0,0,0,0,0,0,.1,0,0,0,.1,0,.2,0,0,0,0,0,.1,0,0,0,0,0,.1,0,0,0,0,0,0,0,0,0,.1,0,.2,0,0,0,.1,0,.2,0,0,0,0,0,0,0,0,0,0,0,.1,0,0,0,.2,0,.3,0,0,0,0,0,0,0,0,0,.1,0,.2,0,0,0,0,0,.1,0,.1,0,.2,0,.4,0,.8,.2,1.4,.6,1.8,.1,.1,.3,.2,.4,.3l2,1.1c-.6-.3-1-1.1-1-2.1,0-.1,0-.2,0-.4,0,0,0,0,0-.1Z"/><path class="ke" d="M412.3,311.8c1.8-1.1,3.3-.2,3.4,1.9,0,2.1-1.5,4.7-3.3,5.8-1.8,1.1-3.3,.2-3.4-1.9,0-2.1,1.5-4.7,3.3-5.8Z"/></g></g><path class="jh" d="M446.7,268.3l-1.1-.7c-1.4-.7-3.1-.7-4.5,.2l-10.1,6.3h0l-41.3,25.9c-3.8,2.4-6.4,6.3-7.2,10.7l-3.1,17.9,11,7.6,3.1-17.9c.8-4.4,3.4-8.3,7.2-10.7l50.2-31.4,1.3-.8c1.4-.9,3.2-.9,4.5-.2l-10-6.9Z"/><path class="kg" d="M391.6,336.4l-2.4-.4,3.1-17.9c.8-4.8,3.6-8.9,7.7-11.5l51.4-32.2c1.7-1.1,3.8-1.2,5.6-.3,1,.3,3.7,2.1,6.9,11.5l-2.3,.8c-2.8-8.2-5.1-9.8-5.4-10h-.2c-1.1-.6-2.4-.6-3.4,0l-51.4,32.2c-3.5,2.2-5.9,5.8-6.6,9.9l-3.1,17.9Z"/></g><g class="is"><polygon class="jy" points="314.9 351.5 247 311.1 246.9 215.5 314.8 255.9 314.9 351.5"/><polygon class="hu" points="314.8 255.9 246.9 215.5 410.8 120.8 478.7 161.2 314.8 255.9"/><polygon class="ii" points="478.7 161.2 478.9 256.8 314.9 351.5 314.8 255.9 478.7 161.2"/></g><path class="jo" d="M309.9,291.9v68.5c-1.9,0-4,.6-6.3,1.9-7.7,4.5-14,15.3-14,24.2,0,.4,0,.9,0,1.3l-31.9,17v-34.7l8.8-51.9,43.3-26.2Z"/><polygon class="mr" points="243.6 256.7 200.3 282.9 191.5 334.7 191.5 369.5 243.6 341.8 243.6 256.7"/><polygon class="ki" points="243.6 256.7 309.9 291.9 266.6 318.1 200.3 282.9 243.6 256.7"/><polygon class="ik" points="200.3 282.9 191.5 334.7 257.7 370 266.6 318.1 200.3 282.9"/><polygon class="hg" points="256.4 363.5 255.9 366.3 194.2 333.4 202.1 286.5 204.8 288 197.3 332 256.4 363.5"/><polygon class="in" points="263.9 319.4 256.4 363.5 197.3 332 204.8 288 263.9 319.4"/><polygon class="og" points="191.5 369.5 257.7 404.7 257.7 370 191.5 334.7 191.5 369.5"/><polygon class="ns" points="191.5 355.5 257.7 390.8 257.7 380 191.5 344.7 191.5 355.5"/><polygon class="hd" points="191.5 369.5 257.7 404.7 257.7 394 191.5 358.7 191.5 369.5"/><polygon class="lq" points="188 371.5 254.2 406.8 254.2 396 188 360.7 188 371.5"/><polygon class="hx" points="197.3 332 242.1 307.8 204.8 288 197.3 332"/><polygon class="mn" points="197.3 332 205.1 327.8 257.7 355.7 256.4 363.5 197.3 332"/><polygon class="gu" points="224.6 298.5 220.1 319.7 260.2 341.3 263.9 319.4 224.6 298.5"/><polygon class="hl" points="238.4 305.8 207.9 337.6 212 339.8 242.8 308.2 238.4 305.8"/><polygon class="hl" points="245.2 309.4 214.7 341.3 218.8 343.5 249.6 311.8 245.2 309.4"/><polygon class="gv" points="217.6 294.8 214.7 313.6 199.4 319.9 204.8 288 217.6 294.8"/><polygon class="hp" points="306.9 297.2 306.9 345.7 285 357.3 285 355 305.1 344.3 305.1 298.3 306.9 297.2"/><polygon class="ku" points="282.1 312.2 282.1 358.9 260.7 370.2 261.2 367.7 280.3 357.5 280.3 313.3 282.1 312.2"/><polygon class="nd" points="305.1 298.3 305.1 344.3 286 354.5 285 355 285 310.5 305.1 298.3"/><polygon class="oh" points="280.3 313.3 280.3 357.5 261.2 367.7 265.3 343.5 269.3 320 280.3 313.3"/><path class="gx" d="M243.3,310.6l-.7,3.9c0,.5-.7,.8-1.1,.5l-10.8-5.8c-.4-.2-.6-.6-.5-1l.6-3.6c0-.6,.7-.9,1.3-.6l10.8,5.8c.3,.2,.5,.5,.4,.8Z"/><g><polygon class="kc" points="242 371.6 242 382.4 257.7 390.8 257.7 380 242 371.6"/><polygon class="lc" points="243.2 381.7 243.2 373.6 256.5 380.7 256.5 388.8 243.2 381.7"/></g><g><polygon class="kw" points="191.5 344.7 191.5 355.5 207.2 363.9 207.2 353.1 191.5 344.7"/><polygon class="hw" points="192.7 354.8 192.7 346.7 206.1 353.8 206.1 361.9 192.7 354.8"/></g><polygon class="lo" points="212.5 363.3 236.8 376.2 236.8 372.2 212.5 359.3 212.5 363.3"/><polygon class="mo" points="206.3 381 230.6 394 230.6 390 206.3 377.1 206.3 381"/><polygon class="gy" points="269.3 320 280.3 313.3 280.3 351.5 265.3 343.5 269.3 320"/><polygon class="gw" points="305.1 324.3 305.1 344.3 286 354.5 285 354 285 313.9 305.1 324.3"/><polygon class="hl" points="280.3 313.3 261.4 366.3 265.3 363.5 280.3 319.9 280.3 313.3"/><polygon class="nn" points="191.5 358.7 188 360.7 254.2 396 257.7 394 191.5 358.7"/><polygon class="ij" points="257.7 394 254.2 396 254.2 406.8 257.7 404.7 257.7 394"/><path class="me" d="M203.2,297.3l2.9-1c.8-.3,1.6,.4,1.5,1.2l-1.1,7.7c-.1,.8-.7,1.5-1.4,1.9l-3.8,1.7"/><path class="ls" d="M304.3,266.2v23.2l-33.6,20.3v-4.2c0-10.4,5.2-20.2,13.9-26.1l19.7-13.3Z"/><path class="mf" d="M304.3,266.2l-19.7,13.3c-8.7,5.8-13.9,15.6-13.9,26.1v4.2l-56.9-30.6v-4.2c0-10.4,5.2-20.2,13.9-26.1l19.7-13.3,56.9,30.6Z"/><g><g><g><path class="nl" d="M290.9,382.7c0-.4,0-.8,.1-1.2,0,0,0-.2,0-.2,0-.5,.2-.9,.3-1.4,0-.2,.1-.5,.2-.7,0-.3,.2-.7,.3-1,0-.2,.1-.4,.2-.6,.1-.4,.2-.7,.4-1.1,0-.2,.1-.3,.2-.5,.2-.5,.4-1,.6-1.5,0,0,0-.1,0-.2,.2-.4,.4-.9,.6-1.3,0-.1,.1-.3,.2-.4,.2-.4,.4-.8,.7-1.2,0,0,0-.2,.1-.2,.3-.5,.6-.9,.9-1.4,0-.1,.2-.3,.3-.4,.2-.3,.4-.7,.7-1,.1-.2,.3-.3,.4-.5,.2-.3,.4-.5,.6-.8,.2-.2,.4-.4,.5-.7,.2-.2,.3-.4,.5-.6,.3-.3,.6-.7,.9-1,.2-.2,.4-.4,.6-.6,.2-.1,.3-.3,.5-.4,.3-.2,.5-.5,.8-.7,.2-.1,.3-.3,.5-.4,.3-.2,.6-.4,.9-.7,.1,0,.3-.2,.4-.3,.4-.3,.9-.6,1.3-.8,.3-.2,.6-.3,.9-.5,0,0,.2,0,.2-.1,.2-.1,.4-.2,.7-.3,0,0,.2,0,.2,0,.2,0,.4-.2,.6-.2,0,0,.1,0,.2,0,.2,0,.5-.2,.7-.2,0,0,0,0,.1,0,.4-.1,.8-.2,1.1-.2h0c.3,0,.6,0,.9,0,0,0,.1,0,.2,0,.3,0,.5,0,.8,0,0,0,0,0,.1,0,.2,0,.4,0,.6,0,0,0,.1,0,.2,0,.2,0,.5,0,.7,.2h0c.2,0,.4,.1,.6,.2,0,0,.1,0,.2,0,.2,0,.3,.2,.5,.2,0,0,.1,0,.2,0l-8-4.7h0c0,0,0,0,0,0-.2,0-.3-.2-.5-.2,0,0,0,0,0,0,0,0,0,0,0,0-.2,0-.4-.2-.6-.2h0c-.2,0-.5-.1-.7-.2,0,0,0,0,0,0,0,0,0,0-.1,0-.2,0-.4,0-.6,0,0,0,0,0,0,0,0,0,0,0,0,0-.3,0-.5,0-.8,0,0,0,0,0,0,0,0,0,0,0-.1,0-.3,0-.6,0-.9,0h0c-.4,0-.8,.1-1.1,.2,0,0,0,0,0,0h0c-.2,0-.5,.2-.7,.2,0,0,0,0-.1,0-.2,0-.4,.1-.6,.2,0,0,0,0,0,0,0,0-.1,0-.1,0-.2,0-.4,.2-.7,.3,0,0-.2,0-.2,.1-.3,.1-.6,.3-.9,.5-.4,.3-.9,.5-1.3,.8-.1,0-.3,.2-.4,.3-.3,.2-.6,.4-.9,.6-.2,.1-.3,.3-.5,.4-.3,.2-.5,.4-.8,.7-.2,.1-.3,.3-.5,.4,0,0-.2,.2-.3,.3-.1,0-.2,.2-.3,.3-.3,.3-.6,.6-.9,1,0,.1-.2,.2-.3,.3,0,0-.2,.2-.2,.3-.2,.2-.4,.4-.5,.7-.1,.1-.2,.3-.4,.4,0,.1-.2,.2-.3,.4-.1,.2-.3,.3-.4,.5,0,.1-.2,.2-.3,.4-.1,.2-.3,.4-.4,.6,0,.1-.2,.3-.3,.4,0,0,0,.1-.1,.2-.2,.4-.5,.8-.7,1.2,0,0,0,0,0,0,0,0,0,.2-.1,.2-.2,.3-.3,.6-.5,.8,0,.1-.1,.3-.2,.4,0,.1-.1,.3-.2,.4,0,.1-.1,.2-.2,.4-.2,.3-.3,.6-.4,1,0,0,0,.1,0,.2,0,0,0,0,0,0-.2,.4-.3,.8-.5,1.2,0,0,0,.2,0,.2,0,.1-.1,.3-.2,.4,0,.2-.2,.4-.2,.6,0,.2,0,.3-.1,.5,0,.2-.1,.4-.2,.6,0,.1,0,.2-.1,.4,0,.2-.1,.4-.2,.6,0,.2-.1,.5-.2,.7,0,0,0,.2,0,.2,0,.2,0,.3,0,.5,0,.4-.1,.7-.2,1.1,0,.1,0,.2,0,.3,0,.2,0,.5,0,.7,0,.2,0,.3,0,.5,0,.5,0,1,0,1.5,0,3.2,.9,5.8,2.3,7.4,.5,.6,1,1,1.7,1.4l8,4.7c-2.5-1.4-4-4.5-4-8.8,0-.5,0-1,0-1.5,0-.2,0-.3,0-.5Z"/><path class="oo" d="M304.5,361c7.6-4.4,13.7-.9,13.8,7.8s-6.1,19.3-13.7,23.7c-7.6,4.4-13.7,.9-13.8-7.8s6.1-19.3,13.7-23.7Z"/></g><path class="ny" d="M314,371.3c0,6-4.2,13.3-9.4,16.4-3.1,1.8-5.9,1.7-7.6,0,1.5,.2,3.2-.2,5-1.2,5.2-3,9.5-10.3,9.4-16.4,0-2.4-.7-4.2-1.9-5.4,2.7,.4,4.5,2.8,4.5,6.7Z"/><path class="mx" d="M311.3,370.1c0,6-4.2,13.3-9.4,16.4-1.8,1.1-3.5,1.4-5,1.2-1.2-1.1-1.9-3-1.9-5.4,0-6,4.2-13.3,9.4-16.3,1.8-1.1,3.6-1.4,5-1.2,1.2,1.1,1.8,3,1.9,5.4Z"/></g><g><path class="ou" d="M301.3,377.7c0,0,0-.2,0-.3h0c0-.2,0-.3,0-.4,0,0,0-.1,0-.2,0,0,0-.2,0-.2,0,0,0,0,0-.1,0,0,0-.2,0-.3,0,0,0,0,0-.1,0-.1,0-.2,.1-.4h0c0-.2,0-.3,.2-.4,0,0,0,0,0-.1,0-.1,.1-.2,.2-.3,0,0,0,0,0,0,0-.1,.1-.2,.2-.3,0,0,0,0,0,0,0,0,.1-.2,.2-.2,0,0,0,0,0-.1,0,0,0-.1,.2-.2,0,0,0-.1,.1-.2,0,0,0,0,.1-.1,0,0,.1-.2,.2-.2,0,0,0,0,.1-.1,0,0,0,0,.1-.1,0,0,.1-.1,.2-.2,0,0,0,0,.1,0,0,0,.1-.1,.2-.2,0,0,0,0,.1,0,.1,0,.2-.1,.3-.2,0,0,.1,0,.2-.1h0c0,0,.1,0,.2-.1,0,0,0,0,0,0,0,0,0,0,.1,0h0c0,0,.1,0,.2,0h0c0,0,.2,0,.3,0h0c0,0,.2,0,.2,0h0c0,0,.1,0,.2,0h0c0,0,.1,0,.2,0h0c0,0,.1,0,.2,0h0c0,0,.1,0,.2,0h0s0,0,.1,0c0,0,0,0,0,0l-2-1.1h0s0,0-.1,0h0s0,0-.2,0h0c0,0-.1,0-.2,0h0s0,0-.2,0h0c0,0-.1,0-.2,0,0,0,0,0,0,0h0c0,0-.1,0-.2,0h0c0,0-.2,0-.3,0h0c0,0-.1,0-.2,0h0s0,0-.1,0h0c0,0-.1,0-.2,0h0c0,0-.1,.1-.2,.1-.1,0-.2,.1-.3,.2,0,0,0,0-.1,0,0,0-.1,.1-.2,.2,0,0,0,0-.1,0,0,0-.1,.1-.2,.2,0,0,0,0-.1,.1,0,0,0,0,0,0,0,0,0,0,0,0,0,0-.1,.2-.2,.2,0,0,0,0,0,0,0,0,0,0,0,0,0,0,0,.1-.1,.2,0,0,0,0,0,.1,0,0,0,0,0,0,0,0,0,0,0,.1,0,0,0,0,0,0,0,0,0,.1-.1,.2,0,0,0,0,0,0h0c0,.1-.1,.2-.2,.3h0s0,0,0,0c0,0,0,.1-.1,.2,0,0,0,0,0,0,0,0,0,0,0,0,0,0,0,0,0,0,0,0,0,.2-.1,.2h0c0,.2,0,.3-.1,.4,0,0,0,0,0,0,0,0,0,0,0,.1,0,0,0,.1,0,.2,0,0,0,0,0,.1,0,0,0,0,0,.1,0,0,0,0,0,0,0,0,0,.1,0,.2,0,0,0,.1,0,.2,0,0,0,0,0,0,0,0,0,0,0,.1,0,0,0,.2,0,.3,0,0,0,0,0,0,0,0,0,.1,0,.2,0,0,0,0,0,.1,0,.1,0,.2,0,.4,0,.8,.2,1.4,.6,1.8,.1,.1,.3,.2,.4,.3l2,1.1c-.6-.3-1-1.1-1-2.1,0-.1,0-.2,0-.4,0,0,0,0,0-.1Z"/><path class="of" d="M304.6,372.5c1.8-1.1,3.3-.2,3.4,1.9,0,2.1-1.5,4.7-3.3,5.8s-3.3,.2-3.4-1.9c0-2.1,1.5-4.7,3.3-5.8Z"/></g></g><path class="nt" d="M310.3,348.6s-19.2,6.5-25.6,19.7c-6.4,13.2-5,23.7-5,23.7l7.8,3.6s.1-19,8.5-28.8c8.8-10.3,21.6-11.6,21.6-11.6l-7.3-6.6Z"/></g></g><g><g class="kl"><ellipse class="js" cx="446.9" cy="404.7" rx="57.8" ry="17.8"/></g><g><g><g><path class="ob" d="M399,180.9l-56.5,32.7c-1.4,.8-2.2,2.2-2.2,3.8v44.8c0,1.3,3.1,3.6,4.2,2.9l56.5-35.2c.8-.5,1.4-1.4,1.4-2.4l2.3-44.4c0-1.7-4.1-3.1-5.6-2.3Z"/><path class="mu" d="M386.8,290.8l56.3-32.6c1.1-.6,1.1-2.3,0-2.9l-35.9-20.6c-1.5-.8-3.3-.8-4.7,0l-56,32.4c-1,.6-1,2,0,2.6l36.6,21c1.2,.7,2.6,.7,3.8,0Z"/><path class="jn" d="M386.8,290.6l56.3-32.6c1.1-.6,1.5-4.6,.4-5.3l-36.4-18.2c-1.5-.8-3.3-.8-4.7,0l-56.6,30.3c-1,.6-.5,4.2,.6,4.8l36.6,21c1.2,.7,2.6,.7,3.8,0Z"/><path class="ia" d="M401.4,182.2l-56.5,32.7c-1.4,.8-2.2,2.2-2.2,3.8v44.8c0,1.3,1.4,2.1,2.5,1.4l58.2-33.7c.8-.5,1.4-1.4,1.4-2.4v-44.8c0-1.7-1.9-2.8-3.4-1.9Z"/><path class="lj" d="M344.4,218.7c0-1,.5-1.8,1.3-2.3l56.5-32.7c0,0,.2,0,.3,0,.2,0,.5,.2,.5,.5v44.8c0,.4-.2,.7-.5,.9l-58.1,33.6v-44.7Z"/><path class="kn" d="M386.8,287.9l56.3-32.6c1.1-.6,1.1-2.3,0-2.9l-35.9-20.6c-1.5-.8-3.3-.8-4.7,0l-56,32.4c-1,.6-1,2,0,2.6l36.6,21c1.2,.7,2.6,.7,3.8,0Z"/><path class="or" d="M377.6,276.1l46.6-27c.9-.5,.9-1.9,0-2.4l-19-11c-1.2-.7-2.7-.7-3.9,0l-46.4,26.8c-.8,.5-.8,1.7,0,2.2l19.6,11.3c1,.5,2.1,.5,3.1,0Z"/><path class="ms" d="M403.2,273.2l14.5-8.4c.3-.2,.3-.6,0-.7l-5.9-3.4c-.4-.2-.8-.2-1.2,0l-14.5,8.4c-.3,.2-.3,.5,0,.7l6.1,3.5c.3,.2,.7,.2,1,0Z"/><g><path class="mc" d="M364.8,262.6l-2-1.1c0,0-.2,0-.3,0l-2.1,1.3c0,0,0,.1,0,.1l2.1,1.2c0,0,.1,0,.2,0l2.1-1.3c0,0,0-.1,0-.2Z"/><path class="nh" d="M363.5,261l2.1,1.2c0,0,.1,0,.2,0l2.1-1.3c0,0,0-.1,0-.2l-2-1.1c0,0-.2,0-.3,0l-2.1,1.3c0,0,0,.1,0,.1Z"/><path class="jk" d="M366.7,259.1l2.1,1.2c0,0,.1,0,.2,0l2.1-1.3c0,0,0-.1,0-.2l-2-1.1c0,0-.2,0-.3,0l-2.1,1.3c0,0,0,.1,0,.1Z"/><path class="hs" d="M369.9,257.3l2.1,1.2c0,0,.1,0,.2,0l2.1-1.3c0,0,0-.1,0-.2l-2-1.1c0,0-.2,0-.3,0l-2.1,1.3c0,0,0,.1,0,.1Z"/><path class="kj" d="M373,255.5l2.1,1.2c0,0,.1,0,.2,0l2.1-1.3c0,0,0-.1,0-.2l-2-1.1c0,0-.2,0-.3,0l-2.1,1.3c0,0,0,.1,0,.1Z"/><path class="ic" d="M376.2,253.6l2.1,1.2c0,0,.1,0,.2,0l2.1-1.3c0,0,0-.1,0-.2l-2-1.1c0,0-.2,0-.3,0l-2.1,1.3c0,0,0,.1,0,.1Z"/><path class="ho" d="M379.4,251.8l2.1,1.2c0,0,.1,0,.2,0l2.1-1.3c0,0,0-.1,0-.2l-2-1.1c0,0-.2,0-.3,0l-2.1,1.3c0,0,0,.1,0,.1Z"/><path class="ja" d="M382.6,249.9l2.1,1.2c0,0,.1,0,.2,0l2.1-1.3c0,0,0-.1,0-.2l-2-1.1c0,0-.2,0-.3,0l-2.1,1.3c0,0,0,.1,0,.1Z"/><path class="jm" d="M385.7,248.1l2.1,1.2c0,0,.1,0,.2,0l2.1-1.3c0,0,0-.1,0-.2l-2-1.1c0,0-.2,0-.3,0l-2.1,1.3c0,0,0,.1,0,.1Z"/><path class="lg" d="M388.9,246.3l2.1,1.2c0,0,.1,0,.2,0l2.1-1.3c0,0,0-.1,0-.2l-2-1.1c0,0-.2,0-.3,0l-2.1,1.3c0,0,0,.1,0,.1Z"/><path class="nq" d="M392.1,244.4l2.1,1.2c0,0,.1,0,.2,0l2.1-1.3c0,0,0-.1,0-.2l-2-1.1c0,0-.2,0-.3,0l-2.1,1.3c0,0,0,.1,0,.1Z"/><path class="lk" d="M395.2,242.6l2.1,1.2c0,0,.1,0,.2,0l2.1-1.3c0,0,0-.1,0-.2l-2-1.1c0,0-.2,0-.3,0l-2.1,1.3c0,0,0,.1,0,.1Z"/><path class="ll" d="M398.4,240.7l2.1,1.2c0,0,.1,0,.2,0l2.1-1.3c0,0,0-.1,0-.2l-2-1.1c0,0-.2,0-.3,0l-2.1,1.3c0,0,0,.1,0,.1Z"/><path class="os" d="M367.9,264.4l-2-1.1c0,0-.2,0-.3,0l-2.1,1.3c0,0,0,.1,0,.1l2.1,1.2c0,0,.1,0,.2,0l2.1-1.3c0,0,0-.1,0-.2Z"/><path class="on" d="M368.8,261.4l-2.1,1.3c0,0,0,.1,0,.1l2.1,1.2c0,0,.1,0,.2,0l2.1-1.3c0,0,0-.1,0-.2l-2-1.1c0,0-.2,0-.3,0Z"/><path class="jt" d="M372,259.6l-2.1,1.3c0,0,0,.1,0,.1l2.1,1.2c0,0,.1,0,.2,0l2.1-1.3c0,0,0-.1,0-.2l-2-1.1c0,0-.2,0-.3,0Z"/><path class="jv" d="M375.2,257.7l-2.1,1.3c0,0,0,.1,0,.1l2.1,1.2c0,0,.1,0,.2,0l2.1-1.3c0,0,0-.1,0-.2l-2-1.1c0,0-.2,0-.3,0Z"/><path class="no" d="M378.3,255.9l-2.1,1.3c0,0,0,.1,0,.1l2.1,1.2c0,0,.1,0,.2,0l2.1-1.3c0,0,0-.1,0-.2l-2-1.1c0,0-.2,0-.3,0Z"/><path class="mp" d="M381.5,254.1l-2.1,1.3c0,0,0,.1,0,.1l2.1,1.2c0,0,.1,0,.2,0l2.1-1.3c0,0,0-.1,0-.2l-2-1.1c0,0-.2,0-.3,0Z"/><path class="if" d="M384.7,252.2l-2.1,1.3c0,0,0,.1,0,.1l2.1,1.2c0,0,.1,0,.2,0l2.1-1.3c0,0,0-.1,0-.2l-2-1.1c0,0-.2,0-.3,0Z"/><path class="kb" d="M387.8,250.4l-2.1,1.3c0,0,0,.1,0,.1l2.1,1.2c0,0,.1,0,.2,0l2.1-1.3c0,0,0-.1,0-.2l-2-1.1c0,0-.2,0-.3,0Z"/><path class="hn" d="M391,248.5l-2.1,1.3c0,0,0,.1,0,.1l2.1,1.2c0,0,.1,0,.2,0l2.1-1.3c0,0,0-.1,0-.2l-2-1.1c0,0-.2,0-.3,0Z"/><path class="ji" d="M394.2,246.7l-2.1,1.3c0,0,0,.1,0,.1l2.1,1.2c0,0,.1,0,.2,0l2.1-1.3c0,0,0-.1,0-.2l-2-1.1c0,0-.2,0-.3,0Z"/><path class="ne" d="M397.4,244.9l-2.1,1.3c0,0,0,.1,0,.1l2.1,1.2c0,0,.1,0,.2,0l2.1-1.3c0,0,0-.1,0-.2l-2-1.1c0,0-.2,0-.3,0Z"/><path class="ju" d="M402.8,244.2l-2-1.1c0,0-.2,0-.3,0l-2.1,1.3c0,0,0,.1,0,.1l2.1,1.2c0,0,.1,0,.2,0l2.1-1.3c0,0,0-.1,0-.2Z"/><path class="lh" d="M401.6,242.6l2.1,1.2c0,0,.1,0,.2,0l2.1-1.3c0,0,0-.1,0-.2l-2-1.1c0,0-.2,0-.3,0l-2.1,1.3c0,0,0,.1,0,.1Z"/><path class="lw" d="M371.1,266.3l-2-1.1c0,0-.2,0-.3,0l-2.1,1.3c0,0,0,.1,0,.1l2.1,1.2c0,0,.1,0,.2,0l2.1-1.3c0,0,0-.1,0-.2Z"/><path class="ni" d="M369.9,264.7l2.1,1.2c0,0,.1,0,.2,0l2.1-1.3c0,0,0-.1,0-.2l-2-1.1c0,0-.2,0-.3,0l-2.1,1.3c0,0,0,.1,0,.1Z"/><path class="oj" d="M375.2,261.4l-2.1,1.3c0,0,0,.1,0,.1l2.1,1.2c0,0,.1,0,.2,0l2.1-1.3c0,0,0-.1,0-.2l-2-1.1c0,0-.2,0-.3,0Z"/><path class="le" d="M378.3,259.6l-2.1,1.3c0,0,0,.1,0,.1l2.1,1.2c0,0,.1,0,.2,0l2.1-1.3c0,0,0-.1,0-.2l-2-1.1c0,0-.2,0-.3,0Z"/><path class="hm" d="M381.5,257.7l-2.1,1.3c0,0,0,.1,0,.1l2.1,1.2c0,0,.1,0,.2,0l2.1-1.3c0,0,0-.1,0-.2l-2-1.1c0,0-.2,0-.3,0Z"/><path class="lt" d="M384.7,255.9l-2.1,1.3c0,0,0,.1,0,.1l2.1,1.2c0,0,.1,0,.2,0l2.1-1.3c0,0,0-.1,0-.2l-2-1.1c0,0-.2,0-.3,0Z"/><path class="nj" d="M387.8,254.1l-2.1,1.3c0,0,0,.1,0,.1l2.1,1.2c0,0,.1,0,.2,0l2.1-1.3c0,0,0-.1,0-.2l-2-1.1c0,0-.2,0-.3,0Z"/><path class="hf" d="M391,252.2l-2.1,1.3c0,0,0,.1,0,.1l2.1,1.2c0,0,.1,0,.2,0l2.1-1.3c0,0,0-.1,0-.2l-2-1.1c0,0-.2,0-.3,0Z"/><path class="ol" d="M394.2,250.4l-2.1,1.3c0,0,0,.1,0,.1l2.1,1.2c0,0,.1,0,.2,0l2.1-1.3c0,0,0-.1,0-.2l-2-1.1c0,0-.2,0-.3,0Z"/><path class="na" d="M397.4,248.5l-2.1,1.3c0,0,0,.1,0,.1l2.1,1.2c0,0,.1,0,.2,0l2.1-1.3c0,0,0-.1,0-.2l-2-1.1c0,0-.2,0-.3,0Z"/><path class="id" d="M400.5,249.3c0,0,.1,0,.2,0l2.1-1.3c0,0,0-.1,0-.2l-2-1.1c0,0-.2,0-.3,0l-2.1,1.3c0,0,0,.1,0,.1l2.1,1.2Z"/><path class="kh" d="M406,246l-2-1.1c0,0-.2,0-.3,0l-2.1,1.3c0,0,0,.1,0,.1l2.1,1.2c0,0,.1,0,.2,0l2.1-1.3c0,0,0-.1,0-.2Z"/><path class="n`" d="M404.8,244.4l2.1,1.2c0,0,.1,0,.2,0l2.1-1.3c0,0,0-.1,0-.2l-2-1.1c0,0-.2,0-.3,0l-2.1,1.3c0,0,0,.1,0,.1Z"/><path class="iy" d="M374.3,268.1l-2-1.1c0,0-.2,0-.3,0l-2.1,1.3c0,0,0,.1,0,.1l2.1,1.2c0,0,.1,0,.2,0l2.1-1.3c0,0,0-.1,0-.2Z"/><path class="lv" d="M373,266.5l2.1,1.2c0,0,.1,0,.2,0l2.1-1.3c0,0,0-.1,0-.2l-2-1.1c0,0-.2,0-.3,0l-2.1,1.3c0,0,0,.1,0,.1Z"/><path class="hi" d="M376.2,264.7l2.1,1.2c0,0,.1,0,.2,0l2.1-1.3c0,0,0-.1,0-.2l-2-1.1c0,0-.2,0-.3,0l-2.1,1.3c0,0,0,.1,0,.1Z"/><path class="jg" d="M381.7,264l2.1-1.3c0,0,0-.1,0-.2l-2-1.1c0,0-.2,0-.3,0l-2.1,1.3c0,0,0,.1,0,.1l2.1,1.2c0,0,.1,0,.2,0Z"/><path class="nr" d="M384.8,262.2l2.1-1.3c0,0,0-.1,0-.2l-2-1.1c0,0-.2,0-.3,0l-2.1,1.3c0,0,0,.1,0,.1l2.1,1.2c0,0,.1,0,.2,0Z"/><path class="op" d="M388,260.3l2.1-1.3c0,0,0-.1,0-.2l-2-1.1c0,0-.2,0-.3,0l-2.1,1.3c0,0,0,.1,0,.1l2.1,1.2c0,0,.1,0,.2,0Z"/><path class="ok" d="M391.2,258.5l2.1-1.3c0,0,0-.1,0-.2l-2-1.1c0,0-.2,0-.3,0l-2.1,1.3c0,0,0,.1,0,.1l2.1,1.2c0,0,.1,0,.2,0Z"/><path class="hv" d="M394.4,256.6l2.1-1.3c0,0,0-.1,0-.2l-2-1.1c0,0-.2,0-.3,0l-2.1,1.3c0,0,0,.1,0,.1l2.1,1.2c0,0,.1,0,.2,0Z"/><path class="md" d="M397.5,254.8l2.1-1.3c0,0,0-.1,0-.2l-2-1.1c0,0-.2,0-.3,0l-2.1,1.3c0,0,0,.1,0,.1l2.1,1.2c0,0,.1,0,.2,0Z"/><path class="my" d="M400.7,253l2.1-1.3c0,0,0-.1,0-.2l-2-1.1c0,0-.2,0-.3,0l-2.1,1.3c0,0,0,.1,0,.1l2.1,1.2c0,0,.1,0,.2,0Z"/><path class="iv" d="M403.9,251.1l2.1-1.3c0,0,0-.1,0-.2l-2-1.1c0,0-.2,0-.3,0l-2.1,1.3c0,0,0,.1,0,.1l2.1,1.2c0,0,.1,0,.2,0Z"/><path class="jp" d="M407,249.3l2.1-1.3c0,0,0-.1,0-.2l-2-1.1c0,0-.2,0-.3,0l-2.1,1.3c0,0,0,.1,0,.1l2.1,1.2c0,0,.1,0,.2,0Z"/><path class="mq" d="M407.9,246.3l2.1,1.2c0,0,.1,0,.2,0l2.1-1.3c0,0,0-.1,0-.2l-2-1.1c0,0-.2,0-.3,0l-2.1,1.3c0,0,0,.1,0,.1Z"/><path class="kv" d="M377.5,269.9l-2-1.1c0,0-.2,0-.3,0l-2.1,1.3c0,0,0,.1,0,.1l2.1,1.2c0,0,.1,0,.2,0l2.1-1.3c0,0,0-.1,0-.2Z"/><path class="hy" d="M376.2,268.3l2.1,1.2c0,0,.1,0,.2,0l2.1-1.3c0,0,0-.1,0-.2l-2-1.1c0,0-.2,0-.3,0l-2.1,1.3c0,0,0,.1,0,.1Z"/><path class="nc" d="M381.7,267.7l2.1-1.3c0,0,0-.1,0-.2l-2-1.1c0,0-.2,0-.3,0l-2.1,1.3c0,0,0,.1,0,.1l2.1,1.2c0,0,.1,0,.2,0Z"/><path class="om" d="M384.8,265.8l2.1-1.3c0,0,0-.1,0-.2l-2-1.1c0,0-.2,0-.3,0l-2.1,1.3c0,0,0,.1,0,.1l2.1,1.2c0,0,.1,0,.2,0Z"/><path class="ig" d="M388,264l2.1-1.3c0,0,0-.1,0-.2l-2-1.1c0,0-.2,0-.3,0l-2.1,1.3c0,0,0,.1,0,.1l2.1,1.2c0,0,.1,0,.2,0Z"/><path class="jq" d="M391.2,262.2l2.1-1.3c0,0,0-.1,0-.2l-2-1.1c0,0-.2,0-.3,0l-2.1,1.3c0,0,0,.1,0,.1l2.1,1.2c0,0,.1,0,.2,0Z"/><path class="ko" d="M394.4,260.3l2.1-1.3c0,0,0-.1,0-.2l-2-1.1c0,0-.2,0-.3,0l-2.1,1.3c0,0,0,.1,0,.1l2.1,1.2c0,0,.1,0,.2,0Z"/><path class="oi" d="M397.5,258.5l2.1-1.3c0,0,0-.1,0-.2l-2-1.1c0,0-.2,0-.3,0l-2.1,1.3c0,0,0,.1,0,.1l2.1,1.2c0,0,.1,0,.2,0Z"/><path class="lf" d="M400.7,256.6l2.1-1.3c0,0,0-.1,0-.2l-2-1.1c0,0-.2,0-.3,0l-2.1,1.3c0,0,0,.1,0,.1l2.1,1.2c0,0,.1,0,.2,0Z"/><path class="lb" d="M403.9,254.8l2.1-1.3c0,0,0-.1,0-.2l-2-1.1c0,0-.2,0-.3,0l-2.1,1.3c0,0,0,.1,0,.1l2.1,1.2c0,0,.1,0,.2,0Z"/><path class="nb" d="M407,253l2.1-1.3c0,0,0-.1,0-.2l-2-1.1c0,0-.2,0-.3,0l-2.1,1.3c0,0,0,.1,0,.1l2.1,1.2c0,0,.1,0,.2,0Z"/><path class="mi" d="M410.2,251.1l2.1-1.3c0,0,0-.1,0-.2l-2-1.1c0,0-.2,0-.3,0l-2.1,1.3c0,0,0,.1,0,.1l2.1,1.2c0,0,.1,0,.2,0Z"/><path class="oq" d="M411.1,248.1l2.1,1.2c0,0,.1,0,.2,0l2.1-1.3c0,0,0-.1,0-.2l-2-1.1c0,0-.2,0-.3,0l-2.1,1.3c0,0,0,.1,0,.1Z"/><path class="nw" d="M380.6,271.8l-2-1.1c0,0-.2,0-.3,0l-2.1,1.3c0,0,0,.1,0,.1l2.1,1.2c0,0,.1,0,.2,0l2.1-1.3c0,0,0-.1,0-.2Z"/><path class="oe" d="M383.8,269.9l-2-1.1c0,0-.2,0-.3,0l-2.1,1.3c0,0,0,.1,0,.1l2.1,1.2c0,0,.1,0,.2,0l2.1-1.3c0,0,0-.1,0-.2Z"/><path class="hr" d="M387,268.1l-2-1.1c0,0-.2,0-.3,0l-2.1,1.3c0,0,0,.1,0,.1l2.1,1.2c0,0,.1,0,.2,0l2.1-1.3c0,0,0-.1,0-.2Z"/><path class="jx" d="M390.1,266.3l-2-1.1c0,0-.2,0-.3,0l-2.1,1.3c0,0,0,.1,0,.1l2.1,1.2c0,0,.1,0,.2,0l2.1-1.3c0,0,0-.1,0-.2Z"/><path class="ln" d="M402.8,258.9l-2-1.1c0,0-.2,0-.3,0l-1.9,1.1-1.2,.7s0,0,0,0l-2,1.2-1.1,.7s0,0,0,0l-2,1.2-3.2,1.9c0,0,0,.1,0,.1l2.1,1.2c0,0,.1,0,.2,0l3.2-1.8h0l3.1-1.8h.2l3-1.8h.2l.3-.3h0l1.6-.9c0,0,0-.1,0-.2Z"/><path class="ir" d="M406,257.1l-2-1.1c0,0-.2,0-.3,0l-2.1,1.3c0,0,0,.1,0,.1l2.1,1.2c0,0,.1,0,.2,0l2.1-1.3c0,0,0-.1,0-.2Z"/><path class="ha" d="M409.2,255.2l-2-1.1c0,0-.2,0-.3,0l-2.1,1.3c0,0,0,.1,0,.1l2.1,1.2c0,0,.1,0,.2,0l2.1-1.3c0,0,0-.1,0-.2Z"/><path class="lu" d="M412.3,253.4l-2-1.1c0,0-.2,0-.3,0l-2.1,1.3c0,0,0,.1,0,.1l2.1,1.2c0,0,.1,0,.2,0l2.1-1.3c0,0,0-.1,0-.2Z"/><path class="kk" d="M415.5,251.5l-2-1.1c0,0-.2,0-.3,0l-2.1,1.3c0,0,0,.1,0,.1l2.1,1.2c0,0,.1,0,.2,0l2.1-1.3c0,0,0-.1,0-.2Z"/><path class="iq" d="M418.7,249.7l-2-1.1c0,0-.2,0-.3,0l-2.1,1.3c0,0,0,.1,0,.1l2.1,1.2c0,0,.1,0,.2,0l2.1-1.3c0,0,0-.1,0-.2Z"/></g></g><g><path class="la" d="M361.6,216.2l-9.5,5.5c-.2,.1-.5,0-.5-.2h0c0-.2,.2-.6,.5-.7l9.5-5.5c.2-.1,.5,0,.5,.2h0c0,.2-.2,.6-.5,.7Z"/><path class="la" d="M361.6,237.5l-9.5,5.5c-.2,.1-.5,0-.5-.2h0c0-.2,.2-.6,.5-.7l9.5-5.5c.2-.1,.5,0,.5,.2h0c0,.2-.2,.6-.5,.7Z"/><path class="la" d="M373.8,209.1l-9.5,5.5c-.2,.1-.5,0-.5-.2h0c0-.2,.2-.6,.5-.7l9.5-5.5c.2-.1,.5,0,.5,.2h0c0,.2-.2,.6-.5,.7Z"/><path class="la" d="M386,202.1l-9.5,5.5c-.2,.1-.5,0-.5-.2h0c0-.2,.2-.6,.5-.7l9.5-5.5c.2-.1,.5,0,.5,.2h0c0,.2-.2,.6-.5,.7Z"/><path class="la" d="M367.7,215.5l-9.5,5.5c-.2,.1-.5,0-.5-.2h0c0-.2,.2-.6,.5-.7l9.5-5.5c.2-.1,.5,0,.5,.2h0c0,.2-.2,.6-.5,.7Z"/><path class="la" d="M370,217.5l-9.5,5.5c-.2,.1-.5,0-.5-.2h0c0-.2,.2-.6,.5-.7l9.5-5.5c.2-.1,.5,0,.5,.2h0c0,.2-.2,.6-.5,.7Z"/><path class="la" d="M370,229.8l-9.5,5.5c-.2,.1-.5,0-.5-.2h0c0-.2,.2-.6,.5-.7l9.5-5.5c.2-.1,.5,0,.5,.2h0c0,.2-.2,.6-.5,.7Z"/><path class="la" d="M370,223.3l-9.5,5.5c-.2,.1-.5,0-.5-.2h0c0-.2,.2-.6,.5-.7l9.5-5.5c.2-.1,.5,0,.5,.2h0c0,.2-.2,.6-.5,.7Z"/><path class="la" d="M379.8,208.5l-9.5,5.5c-.2,.1-.5,0-.5-.2h0c0-.2,.2-.6,.5-.7l9.5-5.5c.2-.1,.5,0,.5,.2h0c0,.2-.2,.6-.5,.7Z"/><path class="la" d="M363.4,224.2l-9.5,5.5c-.2,.1-.5,0-.5-.2h0c0-.2,.2-.6,.5-.7l9.5-5.5c.2-.1,.5,0,.5,.2h0c0,.2-.2,.6-.5,.7Z"/><path class="la" d="M375.6,217.1l-9.5,5.5c-.2,.1-.5,0-.5-.2h0c0-.2,.2-.6,.5-.7l9.5-5.5c.2-.1,.5,0,.5,.2h0c0,.2-.2,.6-.5,.7Z"/><path class="la" d="M375.6,223.4l-9.5,5.5c-.2,.1-.5,0-.5-.2h0c0-.2,.2-.6,.5-.7l9.5-5.5c.2-.1,.5,0,.5,.2h0c0,.2-.2,.6-.5,.7Z"/><path class="la" d="M392,201.5l-9.5,5.5c-.2,.1-.5,0-.5-.2h0c0-.2,.2-.6,.5-.7l9.5-5.5c.2-.1,.5,0,.5,.2h0c0,.2-.2,.6-.5,.7Z"/><path class="la" d="M382.6,210.2l-9.5,5.5c-.2,.1-.5,0-.5-.2h0c0-.2,.2-.6,.5-.7l9.5-5.5c.2-.1,.5,0,.5,.2h0c0,.2-.2,.6-.5,.7Z"/></g></g><path class="jd" d="M457.9,385.6s.2,.6,.4,1.5c.5,2,1.1,5.4,0,6.5-1.5,1.5-9.7,4.9-14.6,2.4-4.9-2.5-10.3-10.8-13.6-12.2-3.3-1.4-1.5-9,9-5,10.6,4,18.8,6.9,18.8,6.9Z"/><path class="li" d="M415.4,400.5s-7.7-.7-11.5-.7-7.7,7.3,2,8.5c9.7,1.3,19.2,5.3,22.6,4.5,3.4-.8,6.8-3,6.2-5.8-.7-2.8-2.7-6.2-2.7-6.2l-16.7-.4Z"/><path class="h`" d="M457.5,290.3s1.6,6.1,0,13.4c-1.6,7.4-2.6,9.2-2.6,9.2v26.2s3.2,7.7,3.3,21.5c.1,13.8,0,24.1,0,24.1,0,0-.6,3.6-6.9,4.1-6.2,.6-9-3.4-9-3.4,0,0-.4-26.4-5.8-41.1-5.5-14.7-5.5-46.6-5.5-46.6l26.5-7.6Z"/><path class="kr" d="M407.7,295.2v51.7s1.5,12.3,5.3,22.8c3.8,10.6,2.6,29.4,2.6,29.4,0,0-1.9,4.3,7.2,5.5,9,1.1,10.6-3.8,10.6-3.8l-1.3-45.8,1.3-29.6s11.3-5.7,12.8-12.4c1.5-6.8,0-14.9,0-14.9l-38.4-2.9Z"/><path class="jc" d="M462,207.3s9.2-1.8,7.6,16.2c-1.7,18-1.3,37.2-7.6,38.8-6.3,1.6,0-55,0-55Z"/><path class="l`" d="M387.9,264.1s-3.2-4.2-8.7-3.9c-5.5,.3-15.4,1.1-12.4,3.7,3,2.5,16.6,7.6,16.6,7.6,0,0,1.4-6.7,4.5-7.4Z"/><g><path class="ot" d="M422.4,184.4s-1.6,8.4-1.2,9.3c.4,1,1.2,1.8,1.2,1.8,0,0-1.3,1.9-1.3,2.8,0,.9,.6,10,2.1,10.9s4.6,1.1,4.6,1.1l1.3,11.5,17.9-8.4-2.4-19.3-9.7-9.7h-12.4Z"/><path class="mw" d="M418,179.9c-2.2,3.2,3.3,7.3,6.4,7.8s-.2,7.1,1.5,8.5c1.7,1.4,1.1,4.3,2.2,5.1,1.1,.8,1.2-4.1,3-4.5,1.8-.4,3.9,3.3,2.8,5.7-1.2,2.4,2,5.1,5.4,5.4,3.5,.3,8.9-1.7,9.9-3.5,1-1.8,3.3-5.7,3.2-9.7,0-4.1-1.7-6-1.7-6,0,0,3.5-9.8-6.4-12.4-9.8-2.6-22-2.7-26.4,3.7Z"/></g><path class="ng" d="M413.8,230.5s44.3-24,48.2-23.2c3.9,.8-1.2,47.7-3.3,63.6-2,15.9-1.2,19.4-1.2,19.4,0,0-10.9,13.9-26.2,14.1-15.3,.2-23.7-9.2-23.7-9.2,0,0,.4-60.1,6.1-64.7Z"/><path class="lx" d="M420.3,234.6c-7.3-3.1-11,2-12.7,17.9-1.7,15.8-1.9,22-1.9,22l-15.8-11.1s-5.6-.2-6.6,4.9l-1,5.1s19.8,25.2,28.8,21.7c9.1-3.4,16.8-46.6,16.1-52.6-.7-6-6.9-8-6.9-8Z"/><path class="ih" d="M424.8,224.6s-.7-4.9,5.7-8c6.4-3.1,15-8.2,17.5-7.1,2.5,1.1,2.5,2.1,2.5,2.1,0,0-23.1,13.2-25.7,13Z"/></g></g></svg>